<?xml version="1.0" encoding="UTF-8" standalone="no"?>
<!-- Created with Inkscape (http://www.inkscape.org/) -->

<svg
   xmlns:dc="http://purl.org/dc/elements/1.1/"
   xmlns:cc="http://creativecommons.org/ns#"
   xmlns:rdf="http://www.w3.org/1999/02/22-rdf-syntax-ns#"
   xmlns:svg="http://www.w3.org/2000/svg"
   xmlns="http://www.w3.org/2000/svg"
   xmlns:sodipodi="http://sodipodi.sourceforge.net/DTD/sodipodi-0.dtd"
   xmlns:inkscape="http://www.inkscape.org/namespaces/inkscape"
   width="200"
   height="200"
   viewBox="0 0 200 200"
   id="svg4742"
   version="1.1"
   inkscape:version="0.91 r13725"
   sodipodi:docname="actors-icon.svg">
  <defs
     id="defs4744" />
  <sodipodi:namedview
     id="base"
     pagecolor="#ffffff"
     bordercolor="#666666"
     borderopacity="1.0"
     inkscape:pageopacity="0.0"
     inkscape:pageshadow="2"
     inkscape:zoom="1.4"
     inkscape:cx="98.982482"
     inkscape:cy="56.493486"
     inkscape:document-units="px"
     inkscape:current-layer="layer1"
     showgrid="false"
     units="px"
     inkscape:window-width="1366"
     inkscape:window-height="714"
     inkscape:window-x="0"
     inkscape:window-y="0"
     inkscape:window-maximized="1" />
  <metadata
     id="metadata4747">
    <rdf:RDF>
      <cc:Work
         rdf:about="">
        <dc:format>image/svg+xml</dc:format>
        <dc:type
           rdf:resource="http://purl.org/dc/dcmitype/StillImage" />
        <dc:title></dc:title>
      </cc:Work>
    </rdf:RDF>
  </metadata>
  <g
     inkscape:label="Layer 1"
     inkscape:groupmode="layer"
     id="layer1"
     transform="translate(0,-852.36216)">
    <path
       d="m 175.96493,947.71633 c -0.73913,-0.42898 -1.58106,-0.95656 -2.46263,-1.54905 -0.88659,-0.5874 -1.81197,-1.23804 -2.71965,-1.91565 -0.90852,-0.67675 -1.79346,-1.38131 -2.60926,-2.06228 -0.81834,-0.6776 -1.56505,-1.33581 -2.18703,-1.92155 -1.25237,-1.15967 -2.00836,-2.04038 -2.00836,-2.04038 0,0 1.05939,0.47449 2.52668,1.34509 0.73996,0.42898 1.5819,0.95739 2.46513,1.54819 0.88493,0.5891 1.81369,1.23721 2.72052,1.9148 0.90683,0.67761 1.79513,1.37964 2.6101,2.06145 0.81834,0.6776 1.5642,1.33414 2.18618,1.9207 1.25322,1.16053 2.00752,2.04208 2.00752,2.04208 6.7e-4,0 -1.05939,-0.47195 -2.5292,-1.3434 m -13.29071,13.62024 c -4.75751,-1.78081 -7.90363,-5.12244 -7.02799,-7.4637 0.8765,-2.34211 5.44356,-2.79552 10.20191,-1.01471 4.75752,1.77912 7.90448,5.12076 7.02884,7.46285 -0.87651,2.34126 -5.44524,2.79467 -10.20276,1.01556 m -17.47429,32.88125 c -0.84616,0.38514 -1.76817,0.39192 -2.57471,0.0893 -0.80654,-0.3 -1.49763,-0.91017 -1.88277,-1.75631 -5.12582,-11.25627 -18.45361,-16.24555 -29.71069,-11.11974 -1.69231,0.76946 -3.68718,0.0236 -4.45749,-1.66787 -0.7703,-1.69147 -0.0244,-3.68719 1.66787,-4.45749 14.6341,-6.66389 31.96176,-0.17951 38.6265,14.4546 0.77031,1.69232 0.0236,3.6872 -1.66871,4.4575 m -35.37757,-57.49477 c 0.87566,-2.34126 5.44439,-2.79552 10.20106,-1.01471 4.7592,1.7808 7.90532,5.12243 7.02967,7.46285 -0.87649,2.34209 -5.44439,2.79636 -10.20274,1.01555 -4.75669,-1.78079 -7.90448,-5.12244 -7.02799,-7.46369 m 6.00991,-12.40411 c 0.85373,-0.0337 1.84821,-0.0404 2.91096,-0.0144 1.06108,0.0219 2.19209,0.075 3.32143,0.15929 1.12932,0.0851 2.25528,0.2048 3.31045,0.34218 1.05348,0.13399 2.03449,0.28823 2.87388,0.4492 1.68052,0.30761 2.78963,0.64557 2.78963,0.64557 0,0 -1.14872,0.16772 -2.85452,0.21913 -0.85373,0.0337 -1.84821,0.0404 -2.90928,0.0144 -1.0636,-0.0219 -2.19462,-0.0716 -3.32395,-0.15759 -1.12848,-0.0843 -2.25528,-0.20143 -3.30877,-0.33881 -1.05431,-0.13316 -2.03533,-0.28908 -2.87473,-0.45005 -1.68052,-0.30761 -2.78962,-0.64725 -2.78962,-0.64641 0,0 1.14788,-0.17024 2.85452,-0.2225 m 14.42172,39.64037 c 0.24188,-0.10871 0.52673,-0.003 0.63714,0.23851 1.06612,2.34294 3.84225,3.38209 6.1852,2.31429 0.24272,-0.10956 0.52674,-0.002 0.63714,0.2385 0.1104,0.24272 0.003,0.52759 -0.23851,0.63714 -1.41419,0.64389 -2.95649,0.65316 -4.30747,0.14665 -1.35014,-0.50482 -2.50813,-1.52375 -3.152,-2.93794 -0.11041,-0.24188 -0.003,-0.52674 0.2385,-0.63715 M 150.90221,923.434 c -16.16629,-6.0495 -40.0348,-23.86513 -40.0348,-23.86513 0,0 -15.867099,44.09955 -18.193178,59.43401 -2.304176,15.18529 4.527435,45.30712 24.181168,52.66302 19.65542,7.3549 44.38524,-11.0758 52.55688,-24.04038 8.2576,-13.10109 25.19926,-56.71603 25.19926,-56.71603 0,0 -27.1975,-1.29535 -43.70933,-7.47549"
       style="fill:#f88909;fill-opacity:1;fill-rule:nonzero;stroke:none"
       id="path512"
       inkscape:connector-curvature="0" />
    <path
       d="m 85.552448,905.01084 c -0.827616,0.21238 -1.798499,0.42813 -2.841867,0.62534 -1.043369,0.20312 -2.160899,0.38937 -3.282652,0.54359 -1.120059,0.15508 -2.247702,0.27475 -3.305397,0.3624 -1.058538,0.0918 -2.051341,0.1475 -2.905924,0.16604 -1.706639,0.0531 -2.862102,-0.0439 -2.862102,-0.0439 0,0 1.086357,-0.40537 2.744117,-0.81496 0.827616,-0.21323 1.797655,-0.42814 2.841024,-0.62703 1.044211,-0.20143 2.159213,-0.39106 3.2818,-0.54528 1.12091,-0.15424 2.246868,-0.27644 3.306248,-0.36409 1.05938,-0.0919 2.051333,-0.14664 2.904231,-0.16518 1.708324,-0.0531 2.864625,0.0455 2.864625,0.0447 0,0 -1.086344,0.40707 -2.744103,0.81835 m 0.09102,19.02922 c -4.637838,2.07157 -9.225119,1.89963 -10.244882,-0.38346 -1.018928,-2.28227 1.917327,-5.81185 6.555173,-7.88257 4.637846,-2.07156 9.225961,-1.89964 10.244892,0.38262 1.01976,2.28311 -1.915651,5.81269 -6.555183,7.88341 m 7.231937,28.07484 c -2.873896,7.50836 -8.533196,13.14912 -15.352166,16.19326 -6.819806,3.04498 -14.798453,3.49333 -22.306819,0.61944 -1.736135,-0.66412 -2.605045,-2.6101 -1.940932,-4.34624 0.664965,-1.73614 2.61011,-2.60421 4.346245,-1.94094 11.552049,4.4221 24.546936,-1.37963 28.967344,-12.93168 0.665799,-1.73613 2.610944,-2.60505 4.347923,-1.94093 1.734446,0.66496 2.604197,2.61095 1.938405,4.34709 M 30.72089,943.60281 c -1.01892,-2.28227 1.916492,-5.81185 6.55518,-7.88257 4.63868,-2.07157 9.225119,-1.90048 10.244891,0.38263 1.018919,2.28309 -1.914808,5.81268 -6.554339,7.8834 -4.637846,2.07072 -9.226803,1.89963 -10.245732,-0.38346 m -4.424613,-13.05389 c 0.584886,-0.62366 1.288617,-1.32571 2.063131,-2.05219 0.773679,-0.73069 1.614779,-1.48667 2.478633,-2.21904 0.863853,-0.73239 1.749619,-1.43695 2.59746,-2.07916 0.844471,-0.64473 1.652703,-1.22288 2.36401,-1.69737 1.410825,-0.95992 2.439015,-1.49763 2.438172,-1.49847 0,0 -0.698665,0.92538 -1.87856,2.1609 -0.584052,0.62282 -1.286931,1.32486 -2.063139,2.05219 -0.771151,0.729 -1.612251,1.48835 -2.476947,2.21904 -0.863854,0.73239 -1.747933,1.43948 -2.595776,2.08084 -0.84447,0.64557 -1.651851,1.22373 -2.363167,1.69737 -1.412501,0.95992 -2.441543,1.49678 -2.441543,1.49763 0,0 0.699509,-0.92623 1.877726,-2.16174 m 38.095537,18.1148 c 0.0944,-0.24777 0.371669,-0.37168 0.621132,-0.27727 2.40362,0.92116 5.110647,-0.2874 6.030122,-2.69271 0.09608,-0.24693 0.374198,-0.37081 0.621132,-0.27726 0.247779,0.0952 0.371671,0.37251 0.277274,0.62112 -0.555389,1.45045 -1.647637,2.54016 -2.964909,3.12757 -1.316436,0.58743 -2.857887,0.67508 -4.307469,0.11969 -0.248629,-0.0953 -0.372513,-0.37336 -0.277282,-0.62114 m -13.734016,-43.3588 c -15.76175,7.03641 -45.2693217,11.09862 -45.2693217,11.09862 0,0 19.6486787,42.54882 28.7549617,55.10463 9.016107,12.43359 35.024441,29.09633 54.187671,20.54204 19.163231,-8.55513 23.841521,-39.04285 20.563101,-54.0107 -3.31215,-15.12967 -21.855933,-58.08808 -21.855933,-58.08808 0,0 -20.283296,18.16621 -36.380487,25.35349"
       style="fill:#f88909;fill-opacity:1;fill-rule:nonzero;stroke:none"
       id="path516"
       inkscape:connector-curvature="0" />
  </g>
</svg>
