<?xml version="1.0" encoding="UTF-8" standalone="no"?>
<!-- Created with Inkscape (http://www.inkscape.org/) -->

<svg
   xmlns:dc="http://purl.org/dc/elements/1.1/"
   xmlns:cc="http://creativecommons.org/ns#"
   xmlns:rdf="http://www.w3.org/1999/02/22-rdf-syntax-ns#"
   xmlns:svg="http://www.w3.org/2000/svg"
   xmlns="http://www.w3.org/2000/svg"
   xmlns:sodipodi="http://sodipodi.sourceforge.net/DTD/sodipodi-0.dtd"
   xmlns:inkscape="http://www.inkscape.org/namespaces/inkscape"
   width="200"
   height="200"
   viewBox="0 0 200 200"
   id="svg4837"
   version="1.1"
   inkscape:version="0.91 r13725"
   sodipodi:docname="app-icon.svg">
  <defs
     id="defs4839" />
  <sodipodi:namedview
     id="base"
     pagecolor="#ffffff"
     bordercolor="#666666"
     borderopacity="1.0"
     inkscape:pageopacity="0.0"
     inkscape:pageshadow="2"
     inkscape:zoom="0.98994949"
     inkscape:cx="-214.76255"
     inkscape:cy="184.92671"
     inkscape:document-units="px"
     inkscape:current-layer="layer1"
     showgrid="false"
     units="px"
     inkscape:window-width="1366"
     inkscape:window-height="714"
     inkscape:window-x="0"
     inkscape:window-y="0"
     inkscape:window-maximized="1" />
  <metadata
     id="metadata4842">
    <rdf:RDF>
      <cc:Work
         rdf:about="">
        <dc:format>image/svg+xml</dc:format>
        <dc:type
           rdf:resource="http://purl.org/dc/dcmitype/StillImage" />
        <dc:title />
      </cc:Work>
    </rdf:RDF>
  </metadata>
  <g
     inkscape:label="Layer 1"
     inkscape:groupmode="layer"
     id="layer1"
     transform="translate(0,-852.36216)">
    <path
       style="fill:#f88909;fill-opacity:1;fill-rule:nonzero;stroke:none"
       d="M 15.158858,887.36212 C 9.5584873,887.36212 5,891.80386 5,897.26463 l 0,110.19507 c 0,5.4608 4.5584873,9.9025 10.158858,9.9025 l 169.682282,0 c 5.60212,0 10.15886,-4.4417 10.15886,-9.9025 l 0,-110.19507 c 0,-5.46077 -4.55674,-9.90251 -10.15886,-9.90251 l -169.682282,0 z m 84.842202,9.35316 c 2.66425,0 4.82298,2.10425 4.82298,4.70127 0,2.59703 -2.15873,4.70128 -4.82298,4.70128 -2.664261,0 -4.822981,-2.10425 -4.822981,-4.70128 0,-2.59702 2.15872,-4.70127 4.822981,-4.70127 z m -86.23105,14.4824 172.45998,0 0,96.26202 c 0,0.7472 -0.62237,1.3537 -1.38885,1.3537 l -169.682282,0 c -0.766476,0 -1.388848,-0.6065 -1.388848,-1.3537 l 0,-96.26202 z m 115.89077,27.37231 c -1.2769,-0.0549 -2.48772,1.05182 -2.20358,2.4854 l 5.65672,28.51831 c 0.38937,1.96444 3.11937,2.31912 4.0209,0.52053 l 2.88113,-5.74439 6.56642,10.69051 c 0.65774,1.07026 1.82141,1.66447 3.0141,1.66447 0.61388,0 1.23531,-0.15764 1.79832,-0.48761 1.66275,-0.9694 2.20182,-3.06815 1.20733,-4.68893 l -6.56432,-10.69051 6.55588,0.23867 c 2.05212,0.0735 3.02154,-2.43791 1.42895,-3.70136 L 130.90822,939.0432 c -0.38719,-0.30731 -0.8218,-0.45491 -1.24744,-0.47321 z"
       id="path192"
       inkscape:connector-curvature="0" />
  </g>
</svg>
