<?xml version="1.0" encoding="UTF-8" standalone="no"?>
<!-- Created with Inkscape (http://www.inkscape.org/) -->

<svg
   xmlns:dc="http://purl.org/dc/elements/1.1/"
   xmlns:cc="http://creativecommons.org/ns#"
   xmlns:rdf="http://www.w3.org/1999/02/22-rdf-syntax-ns#"
   xmlns:svg="http://www.w3.org/2000/svg"
   xmlns="http://www.w3.org/2000/svg"
   xmlns:sodipodi="http://sodipodi.sourceforge.net/DTD/sodipodi-0.dtd"
   xmlns:inkscape="http://www.inkscape.org/namespaces/inkscape"
   width="200"
   height="200"
   viewBox="0 0 200 200"
   id="svg4147"
   version="1.1"
   inkscape:version="0.91 r13725"
   sodipodi:docname="ashleyicon.svg">
  <defs
     id="defs4149" />
  <sodipodi:namedview
     id="base"
     pagecolor="#ffffff"
     bordercolor="#666666"
     borderopacity="1.0"
     inkscape:pageopacity="0.0"
     inkscape:pageshadow="2"
     inkscape:zoom="0.98994949"
     inkscape:cx="-27.279219"
     inkscape:cy="121.39139"
     inkscape:document-units="px"
     inkscape:current-layer="layer1"
     showgrid="false"
     units="px"
     inkscape:window-width="1366"
     inkscape:window-height="714"
     inkscape:window-x="0"
     inkscape:window-y="0"
     inkscape:window-maximized="1" />
  <metadata
     id="metadata4152">
    <rdf:RDF>
      <cc:Work
         rdf:about="">
        <dc:format>image/svg+xml</dc:format>
        <dc:type
           rdf:resource="http://purl.org/dc/dcmitype/StillImage" />
        <dc:title></dc:title>
      </cc:Work>
    </rdf:RDF>
  </metadata>
  <g
     inkscape:label="Layer 1"
     inkscape:groupmode="layer"
     id="layer1"
     transform="translate(0,-852.36216)">
    <g
       transform="matrix(0.40782037,0,0,0.40782037,-3.386753,849.97535)"
       class=""
       id="g6">
      <path
         style="fill:#f88909;fill-opacity:1"
         inkscape:connector-curvature="0"
         d="m 318,123.645 -61.5,35.7 -61.76,-35.7 61.76,-35.7 z m 93.68,54.19 -61.76,35.7 61.76,35.7 61.5,-35.7 z m -294.39,80.64 61.76,35.7 61.5,-35.7 -61.5,-35.7 z m 139.52,-80.57 -61.76,35.7 61.76,35.7 61.5,-35.7 z M 31,298.365 l 62,35.69 0,-71 -62,-35.65 0,71 z m 373,-26 -62,35.69 0,70.94 62,-35.66 0,-70.97 z m -225.11,-139.4 -61.76,35.7 61.76,35.7 61.5,-35.7 z m -69.89,210.34 62,35.69 0,-70.94 -62,-35.69 0,71 z m 225.41,-120.45 -61.76,35.7 61.76,35.7 61.5,-35.7 z m -85.41,130.2 -62,-35.7 0,71 62,35.7 0,-71 z m 77,-35.67 -61,35.67 0,70.94 61,-35.66 0,-70.95 z m 8.07,-184.5 -61.76,35.7 61.76,35.7 61.5,-35.7 z m -232.6,44.95 -61.77,35.7 61.76,35.7 61.5,-35.7 z m 379.53,49.73 -61,35.66 0,70.94 61,-35.66 0,-70.94 z m -286.11,75.93 61.76,35.7 61.5,-35.7 -61.5,-35.7 z"
         id="path8" />
    </g>
  </g>
</svg>
