<?xml version="1.0" encoding="UTF-8" standalone="no"?>
<!-- Created with Inkscape (http://www.inkscape.org/) -->

<svg
   xmlns:dc="http://purl.org/dc/elements/1.1/"
   xmlns:cc="http://creativecommons.org/ns#"
   xmlns:rdf="http://www.w3.org/1999/02/22-rdf-syntax-ns#"
   xmlns:svg="http://www.w3.org/2000/svg"
   xmlns="http://www.w3.org/2000/svg"
   xmlns:sodipodi="http://sodipodi.sourceforge.net/DTD/sodipodi-0.dtd"
   xmlns:inkscape="http://www.inkscape.org/namespaces/inkscape"
   width="200"
   height="200"
   viewBox="0 0 200 200"
   id="svg5306"
   version="1.1"
   inkscape:version="0.91 r13725"
   sodipodi:docname="assets-icon.svg">
  <defs
     id="defs5308" />
  <sodipodi:namedview
     id="base"
     pagecolor="#ffffff"
     bordercolor="#666666"
     borderopacity="1.0"
     inkscape:pageopacity="0.0"
     inkscape:pageshadow="2"
     inkscape:zoom="0.35"
     inkscape:cx="-60.714286"
     inkscape:cy="177.14286"
     inkscape:document-units="px"
     inkscape:current-layer="layer1"
     showgrid="false"
     units="px"
     inkscape:window-width="1366"
     inkscape:window-height="714"
     inkscape:window-x="0"
     inkscape:window-y="0"
     inkscape:window-maximized="1" />
  <metadata
     id="metadata5311">
    <rdf:RDF>
      <cc:Work
         rdf:about="">
        <dc:format>image/svg+xml</dc:format>
        <dc:type
           rdf:resource="http://purl.org/dc/dcmitype/StillImage" />
        <dc:title></dc:title>
      </cc:Work>
    </rdf:RDF>
  </metadata>
  <g
     inkscape:label="Layer 1"
     inkscape:groupmode="layer"
     id="layer1"
     transform="translate(0,-852.36216)">
    <path
       d="m 120.21916,934.63102 c 6.44226,-0.29455 11.41683,-5.74743 11.12228,-12.1897 -0.29706,-6.44225 -5.74743,-11.41681 -12.18969,-11.12227 -6.44226,0.29455 -11.41682,5.74995 -11.12228,12.19221 0.29707,6.44226 5.74744,11.41682 12.18969,11.11976 m 17.46888,33.59844 c -0.13595,-3.00589 -1.33679,-5.86576 -3.38099,-8.07108 l -7.60283,-8.19695 c -2.64085,-2.53259 -6.8375,-2.33875 -9.23667,0.42546 l -13.75557,15.92313 -29.872553,-36.79565 c -2.562807,-3.17456 -7.426599,-3.14183 -9.931503,0.0756 l -23.349731,30.76122 c -1.797488,2.37652 -2.713854,5.30436 -2.575393,8.27751 l 1.246158,27.18643 99.609582,-4.56931 -1.1505,-25.01628 z m -102.502173,34.01884 108.083453,-4.95944 -4.47106,-97.48985 -108.085974,4.95946 4.473581,97.48983 z m 112.088783,-102.83698 5.63917,122.91898 c 0.214,4.6851 -3.40364,8.6527 -8.08869,8.8666 l -108.083453,4.9595 c -4.68505,0.2165 -8.652617,-3.4037 -8.866604,-8.0862 L 22.233376,905.14868 c -0.213987,-4.68505 3.406165,-8.65262 8.086182,-8.8666 l 108.088482,-4.95946 c 4.68505,-0.21398 8.65262,3.40364 8.86661,8.0887 m 30.45408,-10.2336 -12.79137,122.38788 c -0.43552,4.1866 -3.85176,7.3158 -7.92255,7.5625 l -1.56336,-34.15229 3.69568,0.38517 10.14298,-97.0669 -107.615201,-11.24564 -1.422382,13.60956 -8.572057,0.39273 1.555809,-14.88593 c 0.485876,-4.6624 4.654841,-8.04338 9.324786,-7.56003 l 107.610155,11.24816 c 4.66492,0.49091 8.04591,4.66239 7.55751,9.32479"
       style="fill:#f88909;fill-opacity:1;fill-rule:nonzero;stroke:none"
       id="path928"
       inkscape:connector-curvature="0" />
  </g>
</svg>
