<?xml version="1.0" encoding="UTF-8" standalone="no"?>
<!-- Created with Inkscape (http://www.inkscape.org/) -->

<svg
   xmlns:dc="http://purl.org/dc/elements/1.1/"
   xmlns:cc="http://creativecommons.org/ns#"
   xmlns:rdf="http://www.w3.org/1999/02/22-rdf-syntax-ns#"
   xmlns:svg="http://www.w3.org/2000/svg"
   xmlns="http://www.w3.org/2000/svg"
   xmlns:sodipodi="http://sodipodi.sourceforge.net/DTD/sodipodi-0.dtd"
   xmlns:inkscape="http://www.inkscape.org/namespaces/inkscape"
   width="200"
   height="200"
   viewBox="0 0 200 200"
   id="svg4754"
   version="1.1"
   inkscape:version="0.91 r13725"
   sodipodi:docname="freetype-async-icon.svg">
  <defs
     id="defs4756" />
  <sodipodi:namedview
     id="base"
     pagecolor="#ffffff"
     bordercolor="#666666"
     borderopacity="1.0"
     inkscape:pageopacity="0.0"
     inkscape:pageshadow="2"
     inkscape:zoom="1.4"
     inkscape:cx="50.714285"
     inkscape:cy="170"
     inkscape:document-units="px"
     inkscape:current-layer="layer1"
     showgrid="false"
     units="px"
     inkscape:window-width="1366"
     inkscape:window-height="714"
     inkscape:window-x="0"
     inkscape:window-y="0"
     inkscape:window-maximized="1" />
  <metadata
     id="metadata4759">
    <rdf:RDF>
      <cc:Work
         rdf:about="">
        <dc:format>image/svg+xml</dc:format>
        <dc:type
           rdf:resource="http://purl.org/dc/dcmitype/StillImage" />
        <dc:title></dc:title>
      </cc:Work>
    </rdf:RDF>
  </metadata>
  <g
     inkscape:label="Layer 1"
     inkscape:groupmode="layer"
     id="layer1"
     transform="translate(0,-852.36216)">
    <g
       transform="matrix(5.0687625,0,0,5.0687625,1391.2707,-3019.7555)"
       style="font-style:normal;font-variant:normal;font-weight:normal;font-stretch:normal;font-size:40px;line-height:125%;font-family:roboto;-inkscape-font-specification:roboto;letter-spacing:0px;word-spacing:0px;fill:#000000;fill-opacity:1;stroke:none;stroke-width:1px;stroke-linecap:butt;stroke-linejoin:miter;stroke-opacity:1"
       id="text4136">
      <path
         inkscape:connector-curvature="0"
         d="m -252.71484,798.07648 q -0.25391,-0.80078 -0.21485,-1.91407 -2.38281,2.38282 -5.39062,2.30469 -2.77344,-0.0391 -4.60938,-1.79687 -1.8164,-1.77735 -1.69922,-4.375 0.13672,-3.45703 2.89063,-5.29297 2.77344,-1.85547 7.42187,-1.85547 l 2.57813,0.0391 0.27344,-1.26953 q 0.11718,-0.64453 0.0586,-1.23047 -0.0977,-0.91797 -0.70312,-1.42578 -0.58594,-0.52734 -1.5625,-0.54687 -1.28907,-0.0391 -2.1875,0.64453 -0.89844,0.66406 -1.15235,1.93359 l -5.52734,0.0195 q 0.13672,-3.02734 2.77344,-4.90234 2.65625,-1.89453 6.54296,-1.85547 3.59375,0.0781 5.625,2.14844 2.03125,2.05078 1.69922,5.29297 l -1.62109,10.11718 -0.0977,1.25 q -0.0391,1.38672 0.33203,2.34375 l -0.0195,0.3711 -5.41015,0 z m -4.23828,-3.88672 q 2.38281,0.0781 4.16015,-2.07031 l 0.6836,-3.65235 -1.91407,-0.0195 q -3.04687,0.0781 -4.39453,1.85547 -0.48828,0.64453 -0.60547,1.58203 -0.15625,1.05469 0.42969,1.67969 0.60547,0.60547 1.64063,0.625 z"
         style="font-style:italic;font-weight:bold;fill:#f88909;fill-opacity:1"
         id="path4154" />
    </g>
  </g>
</svg>
