<?xml version="1.0" encoding="UTF-8" standalone="no"?>
<!-- Created with Inkscape (http://www.inkscape.org/) -->

<svg
   xmlns:dc="http://purl.org/dc/elements/1.1/"
   xmlns:cc="http://creativecommons.org/ns#"
   xmlns:rdf="http://www.w3.org/1999/02/22-rdf-syntax-ns#"
   xmlns:svg="http://www.w3.org/2000/svg"
   xmlns="http://www.w3.org/2000/svg"
   xmlns:sodipodi="http://sodipodi.sourceforge.net/DTD/sodipodi-0.dtd"
   xmlns:inkscape="http://www.inkscape.org/namespaces/inkscape"
   width="200"
   height="200"
   viewBox="0 0 200 200"
   id="svg4147"
   version="1.1"
   inkscape:version="0.91 r13725"
   sodipodi:docname="graphics-icon.svg">
  <defs
     id="defs4149" />
  <sodipodi:namedview
     id="base"
     pagecolor="#ffffff"
     bordercolor="#666666"
     borderopacity="1.0"
     inkscape:pageopacity="0.0"
     inkscape:pageshadow="2"
     inkscape:zoom="0.98994949"
     inkscape:cx="-9.0964732"
     inkscape:cy="121.39139"
     inkscape:document-units="px"
     inkscape:current-layer="layer1"
     showgrid="false"
     units="px"
     inkscape:window-width="1920"
     inkscape:window-height="1026"
     inkscape:window-x="0"
     inkscape:window-y="0"
     inkscape:window-maximized="1" />
  <metadata
     id="metadata4152">
    <rdf:RDF>
      <cc:Work
         rdf:about="">
        <dc:format>image/svg+xml</dc:format>
        <dc:type
           rdf:resource="http://purl.org/dc/dcmitype/StillImage" />
        <dc:title></dc:title>
      </cc:Work>
    </rdf:RDF>
  </metadata>
  <g
     inkscape:label="Layer 1"
     inkscape:groupmode="layer"
     id="layer1"
     transform="translate(0,-852.36216)">
    <g
       transform="matrix(0.53828822,0,0,0.53828822,15.96536,876.56529)"
       id="g3"
       style="fill:#f88909;fill-opacity:1">
      <path
         inkscape:connector-curvature="0"
         d="m 176.97,215.58 c -5.704,-1.116 -9.834,-6.114 -9.834,-11.928 0,-2.993 -0.87,-5.862 -2.454,-8.53 -3.352,5.463 -7.856,10.481 -13.348,14.809 -14.009,11.047 -38.883,23.947 -62.881,23.947 -7.164,0 -13.936,-1.143 -20.126,-3.397 -7.869,-2.866 -13.401,-10.11 -14.094,-18.451 -0.695,-8.344 3.564,-16.401 10.85,-20.526 16.398,-9.291 21.682,-21.667 26.343,-32.586 0.641,-1.499 1.286,-3.006 1.959,-4.5 -5.419,-3.203 -12.051,-5.094 -19.22,-5.094 -18.277,0 -33.095,12.25 -33.095,27.36 l 0,0.006 c 10e-4,3.363 -2.395,6.232 -5.703,6.842 C 14.953,187.295 0,199.472 0,213.922 c 0,14.445 14.946,26.622 35.354,30.389 3.309,0.61 5.718,3.495 5.717,6.86 0,0.002 0,0.004 0,0.004 0,20.578 22.087,37.259 49.331,37.259 19.135,0 35.718,-8.229 43.897,-20.256 3.066,-4.509 8.407,-6.943 13.822,-6.294 3.617,0.434 7.392,0.663 11.273,0.663 26.738,0 48.412,-10.885 48.412,-24.314 10e-4,-10.312 -12.788,-19.122 -30.836,-22.653 z"
         id="path5"
         style="fill:#f88909;fill-opacity:1" />
      <path
         inkscape:connector-curvature="0"
         d="M 293.021,9.845 C 289.676,6.186 283.998,5.931 280.339,9.276 278.838,10.648 145.335,132.682 142.973,134.844 l -1.499,-1.499 c -3.002,-3.002 -7.947,-3.043 -10.99,0 -0.748,0.748 -1.31,1.611 -1.689,2.532 l -10e-4,0.002 c -0.779,1.893 -0.779,4.03 10e-4,5.923 l 0,0.001 c 0.38,0.921 0.941,1.784 1.689,2.532 l 1.559,1.559 c -1.076,-0.126 -2.16,-0.201 -3.25,-0.201 -4.469,0 -9.003,1.076 -13.213,3.345 -12.396,6.678 -9.546,36.503 -43.102,55.516 -2.22,1.257 -3.508,3.688 -3.296,6.229 0.211,2.542 1.881,4.73 4.278,5.603 22.17,8.075 52.034,-5.181 68.586,-18.233 9.211,-7.258 15.184,-17.497 14.3,-27.954 l 1.616,1.616 c 3.035,3.035 7.955,3.035 10.99,0 3.048,-3.048 2.995,-7.995 0,-10.99 l -1.499,-1.499 c 2.134,-2.335 123.45,-135.051 125.567,-137.367 3.082,-3.393 3.154,-8.664 0.001,-12.114 z"
         id="path7"
         style="fill:#f88909;fill-opacity:1" />
    </g>
  </g>
</svg>
