<?xml version="1.0" encoding="UTF-8" standalone="no"?>
<!-- Created with Inkscape (http://www.inkscape.org/) -->

<svg
   xmlns:dc="http://purl.org/dc/elements/1.1/"
   xmlns:cc="http://creativecommons.org/ns#"
   xmlns:rdf="http://www.w3.org/1999/02/22-rdf-syntax-ns#"
   xmlns:svg="http://www.w3.org/2000/svg"
   xmlns="http://www.w3.org/2000/svg"
   xmlns:sodipodi="http://sodipodi.sourceforge.net/DTD/sodipodi-0.dtd"
   xmlns:inkscape="http://www.inkscape.org/namespaces/inkscape"
   width="200"
   height="200"
   viewBox="0 0 200 200"
   id="svg4835"
   version="1.1"
   inkscape:version="0.91 r13725"
   sodipodi:docname="i18n-icon.svg">
  <defs
     id="defs4837" />
  <sodipodi:namedview
     id="base"
     pagecolor="#ffffff"
     bordercolor="#666666"
     borderopacity="1.0"
     inkscape:pageopacity="0.0"
     inkscape:pageshadow="2"
     inkscape:zoom="0.35"
     inkscape:cx="-496.42857"
     inkscape:cy="514.28571"
     inkscape:document-units="px"
     inkscape:current-layer="layer1"
     showgrid="false"
     units="px"
     inkscape:window-width="1366"
     inkscape:window-height="714"
     inkscape:window-x="0"
     inkscape:window-y="0"
     inkscape:window-maximized="1" />
  <metadata
     id="metadata4840">
    <rdf:RDF>
      <cc:Work
         rdf:about="">
        <dc:format>image/svg+xml</dc:format>
        <dc:type
           rdf:resource="http://purl.org/dc/dcmitype/StillImage" />
        <dc:title />
      </cc:Work>
    </rdf:RDF>
  </metadata>
  <g
     inkscape:label="Layer 1"
     inkscape:groupmode="layer"
     id="layer1"
     transform="translate(0,-852.36216)">
    <path
       style="fill:#f88909;fill-opacity:1;fill-rule:nonzero;stroke:none"
       d="m 51.605276,874.33014 -21.622851,17.26653 47.048816,66.26034 28.787489,-22.9898 -54.213454,-60.53707 z m 59.038664,66.57787 -28.787493,22.9898 12.743998,13.3642 26.257035,-20.97042 -10.21354,-15.38358 z m 15.19505,21.48641 -11.79385,9.41721 -2.73883,2.18562 -11.793825,9.41968 20.779375,33.35967 c 0,0 16.3381,4.4018 37.00396,19.0676 1.28289,0.9097 2.83351,-0.7136 1.85071,-1.9425 l -23.28006,-29.1521 c -3.0262,1.4067 -6.72601,0.6441 -8.90119,-2.0789 -2.55307,-3.19774 -2.0317,-7.86148 1.16599,-10.4146 3.19768,-2.55306 7.85894,-2.03016 10.41201,1.16599 2.17518,2.72454 2.10225,6.50147 0.062,9.14191 l 23.28004,29.1521 c 0.98124,1.2289 2.90713,0.076 2.30221,-1.3768 -9.73117,-23.3984 -10.40954,-40.30601 -10.40954,-40.30601 l -27.93903,-27.63887 z"
       id="path350"
       inkscape:connector-curvature="0" />
  </g>
</svg>
