<?xml version="1.0" encoding="UTF-8" standalone="no"?>
<!-- Created with Inkscape (http://www.inkscape.org/) -->

<svg
   xmlns:dc="http://purl.org/dc/elements/1.1/"
   xmlns:cc="http://creativecommons.org/ns#"
   xmlns:rdf="http://www.w3.org/1999/02/22-rdf-syntax-ns#"
   xmlns:svg="http://www.w3.org/2000/svg"
   xmlns="http://www.w3.org/2000/svg"
   xmlns:sodipodi="http://sodipodi.sourceforge.net/DTD/sodipodi-0.dtd"
   xmlns:inkscape="http://www.inkscape.org/namespaces/inkscape"
   width="200"
   height="200"
   viewBox="0 0 200 200"
   id="svg4754"
   version="1.1"
   inkscape:version="0.92.4 (unknown)"
   sodipodi:docname="icon.svg">
  <defs
     id="defs4756" />
  <sodipodi:namedview
     id="base"
     pagecolor="#ffffff"
     bordercolor="#666666"
     borderopacity="1.0"
     inkscape:pageopacity="0.0"
     inkscape:pageshadow="2"
     inkscape:zoom="1.979899"
     inkscape:cx="42.682899"
     inkscape:cy="93.085596"
     inkscape:document-units="px"
     inkscape:current-layer="layer1"
     showgrid="false"
     units="px"
     inkscape:window-width="1853"
     inkscape:window-height="1025"
     inkscape:window-x="67"
     inkscape:window-y="27"
     inkscape:window-maximized="1" />
  <metadata
     id="metadata4759">
    <rdf:RDF>
      <cc:Work
         rdf:about="">
        <dc:format>image/svg+xml</dc:format>
        <dc:type
           rdf:resource="http://purl.org/dc/dcmitype/StillImage" />
        <dc:title></dc:title>
      </cc:Work>
    </rdf:RDF>
  </metadata>
  <g
     inkscape:label="Layer 1"
     inkscape:groupmode="layer"
     id="layer1"
     transform="translate(0,-852.36216)">
    <g
       aria-label="{ }"
       style="font-style:normal;font-weight:normal;font-size:127.56571198px;line-height:1.25;font-family:sans-serif;letter-spacing:0px;word-spacing:0px;fill:#f88909;fill-opacity:1;stroke:none;stroke-width:0.99999994"
       id="text820">
      <path
         d="m 88.723043,893.00267 q -5.730491,1.80635 -10.090647,4.85846 -4.360156,3.05211 -7.28769,6.78939 -2.927533,3.67499 -4.422444,7.78599 -1.432622,4.04872 -1.432622,7.84828 0,2.24237 0.934319,4.92075 0.934319,2.6161 2.055502,5.35677 1.183471,2.67838 2.11779,5.29447 0.934319,2.61609 0.934319,4.85846 0,1.43262 -0.436015,3.17669 -0.373728,1.68177 -1.557199,3.30126 -1.121183,1.5572 -3.301261,2.86524 -2.11779,1.24576 -5.668203,1.74406 1.744062,0.43602 3.612701,1.37034 1.868638,0.93432 3.363549,2.36694 1.557198,1.37034 2.491518,3.23897 0.996607,1.80636 0.996607,4.11101 0,2.0555 -0.62288,4.17329 -0.560591,2.11779 -1.308047,4.29787 -0.747455,2.18008 -1.370334,4.48473 -0.560592,2.24237 -0.560592,4.54702 0,4.11101 0.560592,7.28769 0.622879,3.1144 1.80635,5.6682 1.245759,2.55381 2.989821,4.60931 1.806351,2.11784 4.173293,4.11104 2.42923,1.9932 5.419051,4.0487 2.989821,2.1178 6.602522,4.6093 -4.85846,1.308 -10.588951,1.5572 -5.73049,0.3114 -11.523269,-0.4983 -5.730491,-0.8098 -11.087255,-2.7407 -5.356763,-1.8686 -9.467767,-4.9207 -4.111005,-2.9899 -6.602523,-7.16314 -2.491517,-4.1733 -2.491517,-9.53006 0,-3.17669 0.747455,-6.04193 0.747455,-2.86525 1.619487,-5.35676 0.872031,-2.55381 1.619486,-4.73389 0.747455,-2.24236 0.747455,-4.04871 0,-2.6161 -0.809743,-4.48474 -0.747455,-1.93092 -2.055502,-3.23897 -1.308047,-1.37033 -2.989821,-2.30465 -1.681775,-0.93432 -3.425837,-1.61949 -1.744063,-0.74746 -3.488125,-1.30805 -1.681775,-0.62288 -3.05211,-1.30804 3.176686,-0.5606 5.979643,-1.80635 2.802958,-1.24576 4.85846,-3.05211 2.055502,-1.80635 3.238973,-4.11101 1.183471,-2.30465 1.183471,-4.98303 0,-1.93093 -0.622879,-4.11101 -0.62288,-2.18008 -1.370335,-4.60931 -0.685168,-2.42923 -1.308047,-5.04532 -0.62288,-2.67838 -0.62288,-5.48134 0,-3.55041 1.308047,-7.2254 1.370335,-3.73728 4.111005,-7.10083 2.802957,-3.36355 7.038537,-6.1665 4.235581,-2.80296 9.966072,-4.60931 5.730491,-1.80635 12.955892,-2.30465 7.28769,-0.5606 16.132578,0.62287 z"
         style="font-style:normal;font-variant:normal;font-weight:normal;font-stretch:normal;font-family:Shojumaru;-inkscape-font-specification:Shojumaru;fill:#f88909;fill-opacity:1;stroke-width:0.99999994"
         id="path879" />
      <path
         d="m 115.13075,893.00267 q 8.84488,-1.18347 16.13257,-0.62287 7.28769,0.4983 13.01818,2.30465 5.73049,1.80635 9.90379,4.60931 4.23558,2.80295 7.03853,6.1665 2.80296,3.36355 4.11101,7.10083 1.37033,3.67499 1.37033,7.2254 0,2.80296 -0.62288,5.48134 -0.62287,2.61609 -1.37033,5.04532 -0.74746,2.42923 -1.37034,4.60931 -0.62287,2.18008 -0.62287,4.11101 0,2.67838 1.18347,4.98303 1.18347,2.30466 3.23897,4.11101 2.11779,1.80635 4.92075,3.05211 2.80295,1.24575 5.97964,1.80635 -1.37033,0.68516 -3.1144,1.30804 -1.68177,0.56059 -3.42583,1.30805 -1.74407,0.68517 -3.42584,1.61949 -1.68178,0.93432 -2.98982,2.30465 -1.30805,1.30805 -2.11779,3.23897 -0.74746,1.86864 -0.74746,4.48474 0,1.80635 0.74746,4.04871 0.74745,2.18008 1.61948,4.73389 0.87204,2.49151 1.61949,5.35676 0.74746,2.86524 0.74746,6.04193 0,5.35676 -2.49152,9.53006 -2.49152,4.17324 -6.60252,7.16314 -4.11101,3.0521 -9.46777,4.9207 -5.35677,1.9309 -11.14954,2.7407 -5.7305,0.8097 -11.52327,0.4983 -5.7305,-0.2492 -10.58895,-1.5572 3.6127,-2.4915 6.60252,-4.6093 2.98982,-2.0555 5.35676,-4.0487 2.42923,-1.9932 4.23558,-4.11104 1.80635,-2.0555 2.98982,-4.60931 1.18347,-2.5538 1.74406,-5.6682 0.62288,-3.17668 0.62288,-7.28769 0,-2.30465 -0.62288,-4.54702 -0.56059,-2.30465 -1.30804,-4.48473 -0.68517,-2.18008 -1.30805,-4.29787 -0.56059,-2.11779 -0.56059,-4.17329 0,-2.30465 0.93432,-4.11101 0.99661,-1.86863 2.49152,-3.23897 1.5572,-1.43262 3.36355,-2.36694 1.86863,-0.93432 3.67498,-1.37034 -3.55041,-0.4983 -5.73049,-1.74406 -2.11779,-1.30804 -3.30126,-2.86524 -1.18347,-1.61949 -1.5572,-3.30126 -0.37372,-1.74407 -0.37372,-3.17669 0,-2.24237 0.93432,-4.85846 0.93431,-2.61609 2.0555,-5.29447 1.12118,-2.74067 2.0555,-5.35677 0.93432,-2.67838 0.93432,-4.92075 0,-3.79956 -1.49491,-7.84828 -1.43262,-4.111 -4.36016,-7.78599 -2.92753,-3.73728 -7.28769,-6.78939 -4.36015,-3.05211 -10.09064,-4.85846 z"
         style="font-style:normal;font-variant:normal;font-weight:normal;font-stretch:normal;font-family:Shojumaru;-inkscape-font-specification:Shojumaru;fill:#f88909;fill-opacity:1;stroke-width:0.99999994"
         id="path881" />
    </g>
  </g>
</svg>
