<?xml version="1.0" encoding="UTF-8" standalone="no"?>
<!-- Created with Inkscape (http://www.inkscape.org/) -->

<svg
   xmlns:dc="http://purl.org/dc/elements/1.1/"
   xmlns:cc="http://creativecommons.org/ns#"
   xmlns:rdf="http://www.w3.org/1999/02/22-rdf-syntax-ns#"
   xmlns:svg="http://www.w3.org/2000/svg"
   xmlns="http://www.w3.org/2000/svg"
   xmlns:sodipodi="http://sodipodi.sourceforge.net/DTD/sodipodi-0.dtd"
   xmlns:inkscape="http://www.inkscape.org/namespaces/inkscape"
   width="200"
   height="200"
   viewBox="0 0 200 200"
   id="svg4835"
   version="1.1"
   inkscape:version="0.91 r13725"
   sodipodi:docname="math-icon.svg">
  <defs
     id="defs4837" />
  <sodipodi:namedview
     id="base"
     pagecolor="#ffffff"
     bordercolor="#666666"
     borderopacity="1.0"
     inkscape:pageopacity="0.0"
     inkscape:pageshadow="2"
     inkscape:zoom="0.35"
     inkscape:cx="-496.42857"
     inkscape:cy="171.42857"
     inkscape:document-units="px"
     inkscape:current-layer="layer1"
     showgrid="false"
     units="px"
     inkscape:window-width="1366"
     inkscape:window-height="714"
     inkscape:window-x="0"
     inkscape:window-y="0"
     inkscape:window-maximized="1" />
  <metadata
     id="metadata4840">
    <rdf:RDF>
      <cc:Work
         rdf:about="">
        <dc:format>image/svg+xml</dc:format>
        <dc:type
           rdf:resource="http://purl.org/dc/dcmitype/StillImage" />
        <dc:title></dc:title>
      </cc:Work>
    </rdf:RDF>
  </metadata>
  <g
     inkscape:label="Layer 1"
     inkscape:groupmode="layer"
     id="layer1"
     transform="translate(0,-852.36216)">
    <path
       d="m 141.64027,920.05554 -77.566249,0 c -0.925,0 -1.675,-0.75 -1.675,-1.67375 l 0,-25.295 c 0,-0.92375 0.75,-1.67375 1.675,-1.67375 l 77.566249,0 c 0.925,0 1.67375,0.75 1.67375,1.67375 l 0,25.295 c 0,0.92375 -0.74875,1.67375 -1.67375,1.67375 m -0.7975,35.0625 -8.30375,0 c -1.365,0 -2.47125,-1.1075 -2.47125,-2.4725 l 0,-8.3025 c 0,-1.36625 1.10625,-2.4725 2.47125,-2.4725 l 8.30375,0 c 1.365,0 2.47125,1.10625 2.47125,2.4725 l 0,8.3025 c 0,1.365 -1.10625,2.4725 -2.47125,2.4725 m 0,21.3025 -8.30375,0 c -1.365,0 -2.47125,-1.1075 -2.47125,-2.4725 l 0,-8.3025 c 0,-1.365 1.10625,-2.4725 2.47125,-2.4725 l 8.30375,0 c 1.365,0 2.47125,1.1075 2.47125,2.4725 l 0,8.3025 c 0,1.365 -1.10625,2.4725 -2.47125,2.4725 m 0,42.60496 -8.30375,0 c -1.365,0 -2.47125,-1.1062 -2.47125,-2.4712 l 0,-29.60626 c 0,-1.365 1.10625,-2.4725 2.47125,-2.4725 l 8.30375,0 c 1.365,0 2.47125,1.1075 2.47125,2.4725 l 0,29.60626 c 0,1.365 -1.10625,2.4712 -2.47125,2.4712 m -26.495,-63.90746 -8.3025,0 c -1.365,0 -2.4725,-1.1075 -2.4725,-2.4725 l 0,-8.3025 c 0,-1.36625 1.1075,-2.4725 2.4725,-2.4725 l 8.3025,0 c 1.365,0 2.4725,1.10625 2.4725,2.4725 l 0,8.3025 c 0,1.365 -1.1075,2.4725 -2.4725,2.4725 m 0,21.3025 -8.3025,0 c -1.365,0 -2.4725,-1.1075 -2.4725,-2.4725 l 0,-8.3025 c 0,-1.365 1.1075,-2.4725 2.4725,-2.4725 l 8.3025,0 c 1.365,0 2.4725,1.1075 2.4725,2.4725 l 0,8.3025 c 0,1.365 -1.1075,2.4725 -2.4725,2.4725 m 0,21.3025 -8.3025,0 c -1.365,0 -2.4725,-1.10625 -2.4725,-2.4725 l 0,-8.3025 c 0,-1.365 1.1075,-2.4725 2.4725,-2.4725 l 8.3025,0 c 1.365,0 2.4725,1.1075 2.4725,2.4725 l 0,8.3025 c 0,1.36625 -1.1075,2.4725 -2.4725,2.4725 m 0,21.30246 -8.3025,0 c -1.365,0 -2.4725,-1.1062 -2.4725,-2.4712 l 0,-8.3038 c 0,-1.365 1.1075,-2.4712 2.4725,-2.4712 l 8.3025,0 c 1.365,0 2.4725,1.1062 2.4725,2.4712 l 0,8.3038 c 0,1.365 -1.1075,2.4712 -2.4725,2.4712 m -20.586249,-63.90746 -8.30375,0 c -1.365,0 -2.47125,-1.1075 -2.47125,-2.4725 l 0,-8.3025 c 0,-1.36625 1.10625,-2.4725 2.47125,-2.4725 l 8.30375,0 c 1.365,0 2.47125,1.10625 2.47125,2.4725 l 0,8.3025 c 0,1.365 -1.10625,2.4725 -2.47125,2.4725 m 0,21.3025 -8.30375,0 c -1.365,0 -2.47125,-1.1075 -2.47125,-2.4725 l 0,-8.3025 c 0,-1.365 1.10625,-2.4725 2.47125,-2.4725 l 8.30375,0 c 1.365,0 2.47125,1.1075 2.47125,2.4725 l 0,8.3025 c 0,1.365 -1.10625,2.4725 -2.47125,2.4725 m 0,21.3025 -8.30375,0 c -1.365,0 -2.47125,-1.10625 -2.47125,-2.4725 l 0,-8.3025 c 0,-1.365 1.10625,-2.4725 2.47125,-2.4725 l 8.30375,0 c 1.365,0 2.47125,1.1075 2.47125,2.4725 l 0,8.3025 c 0,1.36625 -1.10625,2.4725 -2.47125,2.4725 m 0,21.30246 -8.30375,0 c -1.365,0 -2.47125,-1.1062 -2.47125,-2.4712 l 0,-8.3038 c 0,-1.365 1.10625,-2.4712 2.47125,-2.4712 l 8.30375,0 c 1.365,0 2.47125,1.1062 2.47125,2.4712 l 0,8.3038 c 0,1.365 -1.10625,2.4712 -2.47125,2.4712 m -20.5875,-63.90746 -8.3025,0 c -1.365,0 -2.4725,-1.1075 -2.4725,-2.4725 l 0,-8.3025 c 0,-1.36625 1.1075,-2.4725 2.4725,-2.4725 l 8.3025,0 c 1.36625,0 2.4725,1.10625 2.4725,2.4725 l 0,8.3025 c 0,1.365 -1.10625,2.4725 -2.4725,2.4725 m 0,21.3025 -8.3025,0 c -1.365,0 -2.4725,-1.1075 -2.4725,-2.4725 l 0,-8.3025 c 0,-1.365 1.1075,-2.4725 2.4725,-2.4725 l 8.3025,0 c 1.36625,0 2.4725,1.1075 2.4725,2.4725 l 0,8.3025 c 0,1.365 -1.10625,2.4725 -2.4725,2.4725 m 0,21.3025 -8.3025,0 c -1.365,0 -2.4725,-1.10625 -2.4725,-2.4725 l 0,-8.3025 c 0,-1.365 1.1075,-2.4725 2.4725,-2.4725 l 8.3025,0 c 1.36625,0 2.4725,1.1075 2.4725,2.4725 l 0,8.3025 c 0,1.36625 -1.10625,2.4725 -2.4725,2.4725 m 0,21.30246 -8.3025,0 c -1.365,0 -2.4725,-1.1062 -2.4725,-2.4712 l 0,-8.3038 c 0,-1.365 1.1075,-2.4712 2.4725,-2.4712 l 8.3025,0 c 1.36625,0 2.4725,1.1062 2.4725,2.4712 l 0,8.3038 c 0,1.365 -1.10625,2.4712 -2.4725,2.4712 m -24.7375,-133.31621 0,139.02121 c 0,4.4263 3.58875,8.0151 8.015,8.0151 l 92.809999,0 c 4.4275,0 8.01625,-3.5888 8.01625,-8.0151 l 0,-139.02121 c 0,-4.4275 -3.58875,-8.01625 -8.01625,-8.01625 l -92.809999,0 c -4.42625,0 -8.015,3.58875 -8.015,8.01625"
       style="fill:#f88909;fill-opacity:1;fill-rule:nonzero;stroke:none"
       id="path296"
       inkscape:connector-curvature="0" />
  </g>
</svg>
