<?xml version="1.0" encoding="UTF-8" standalone="no"?>
<!-- Created with Inkscape (http://www.inkscape.org/) -->

<svg
   xmlns:dc="http://purl.org/dc/elements/1.1/"
   xmlns:cc="http://creativecommons.org/ns#"
   xmlns:rdf="http://www.w3.org/1999/02/22-rdf-syntax-ns#"
   xmlns:svg="http://www.w3.org/2000/svg"
   xmlns="http://www.w3.org/2000/svg"
   xmlns:sodipodi="http://sodipodi.sourceforge.net/DTD/sodipodi-0.dtd"
   xmlns:inkscape="http://www.inkscape.org/namespaces/inkscape"
   width="200"
   height="200"
   viewBox="0 0 200 200"
   id="svg4179"
   version="1.1"
   inkscape:version="0.91 r13725"
   sodipodi:docname="vis-icon.svg">
  <defs
     id="defs4181" />
  <sodipodi:namedview
     id="base"
     pagecolor="#ffffff"
     bordercolor="#666666"
     borderopacity="1.0"
     inkscape:pageopacity="0.0"
     inkscape:pageshadow="2"
     inkscape:zoom="2.8"
     inkscape:cx="160.97274"
     inkscape:cy="40.557771"
     inkscape:document-units="px"
     inkscape:current-layer="layer1"
     showgrid="false"
     units="px"
     inkscape:window-width="1366"
     inkscape:window-height="714"
     inkscape:window-x="0"
     inkscape:window-y="0"
     inkscape:window-maximized="1" />
  <metadata
     id="metadata4184">
    <rdf:RDF>
      <cc:Work
         rdf:about="">
        <dc:format>image/svg+xml</dc:format>
        <dc:type
           rdf:resource="http://purl.org/dc/dcmitype/StillImage" />
        <dc:title></dc:title>
      </cc:Work>
    </rdf:RDF>
  </metadata>
  <g
     inkscape:label="Layer 1"
     inkscape:groupmode="layer"
     id="layer1"
     transform="translate(0,-852.36216)">
    <g
       transform="matrix(0.26143791,0,0,0.28628327,20,864.75934)"
       id="g3"
       style="fill:#f88909;fill-opacity:1">
      <path
         style="fill:#f88909;fill-opacity:1"
         d="M 20 20 L 20 180 L 86.271484 180 C 86.271484 150.45643 62.268534 125.72194 46.390625 113.56836 C 89.585135 87.935413 96.632627 40.206383 97.580078 33.822266 L 102.41992 33.822266 C 103.36737 40.206383 110.41485 87.9357 153.60938 113.56836 C 137.73146 125.72194 113.72852 150.45643 113.72852 180 L 147.61719 180 L 154.33398 197 L 175.66602 197 L 197 143 L 180 143 L 180 20 L 20 20 z M 32.623047 33.822266 L 64.251953 33.822266 C 63.097966 40.838496 60.57126 54.022655 56.162109 67.136719 C 51.434266 81.19838 43.688145 97.807336 32.623047 102.08984 L 32.623047 33.822266 z M 135.74805 33.822266 L 167.37695 33.822266 L 167.37695 102.08984 C 156.31186 97.807336 148.56573 81.19838 143.83789 67.136719 C 139.429 54.022655 136.90491 40.838496 135.74805 33.822266 z M 140 146 L 156.66602 146 L 165 168 L 173.33398 146 L 190 146 L 173.33398 190 L 156.66602 190 L 140 146 z "
         transform="matrix(3.825,0,0,3.4930438,-76.5,-43.303893)"
         id="path5" />
    </g>
    <path
       inkscape:connector-curvature="0"
       style="fill:none;fill-opacity:1;stroke:#f88909;stroke-width:6.71994591;stroke-miterlimit:4;stroke-dasharray:none;stroke-opacity:1"
       d="m 137.03522,998.57929 18.40509,48.28001 18.40509,0 18.40508,-48.28001 -18.40508,0 -9.20255,24.14001 -9.20254,-24.14001 -18.40509,0 z"
       id="rect4154" />
  </g>
</svg>
