<?xml version="1.0" encoding="UTF-8" standalone="no"?>
<!-- Created with Inkscape (http://www.inkscape.org/) -->

<svg
   xmlns:dc="http://purl.org/dc/elements/1.1/"
   xmlns:cc="http://creativecommons.org/ns#"
   xmlns:rdf="http://www.w3.org/1999/02/22-rdf-syntax-ns#"
   xmlns:svg="http://www.w3.org/2000/svg"
   xmlns="http://www.w3.org/2000/svg"
   xmlns:sodipodi="http://sodipodi.sourceforge.net/DTD/sodipodi-0.dtd"
   xmlns:inkscape="http://www.inkscape.org/namespaces/inkscape"
   width="200"
   height="200"
   viewBox="0 0 200 200"
   id="svg4194"
   version="1.1"
   inkscape:version="0.91 r13725"
   sodipodi:docname="vis-style-icon.svg">
  <defs
     id="defs4196" />
  <sodipodi:namedview
     id="base"
     pagecolor="#ffffff"
     bordercolor="#666666"
     borderopacity="1.0"
     inkscape:pageopacity="0.0"
     inkscape:pageshadow="2"
     inkscape:zoom="1.979899"
     inkscape:cx="116.02734"
     inkscape:cy="114.28571"
     inkscape:document-units="px"
     inkscape:current-layer="layer1"
     showgrid="false"
     units="px"
     inkscape:window-width="1366"
     inkscape:window-height="714"
     inkscape:window-x="0"
     inkscape:window-y="0"
     inkscape:window-maximized="1" />
  <metadata
     id="metadata4199">
    <rdf:RDF>
      <cc:Work
         rdf:about="">
        <dc:format>image/svg+xml</dc:format>
        <dc:type
           rdf:resource="http://purl.org/dc/dcmitype/StillImage" />
        <dc:title></dc:title>
      </cc:Work>
    </rdf:RDF>
  </metadata>
  <g
     inkscape:label="Layer 1"
     inkscape:groupmode="layer"
     id="layer1"
     transform="translate(0,-852.36216)">
    <g
       transform="matrix(0.39151368,0,0,0.39151368,21.150147,873.51243)"
       id="g3"
       style="fill:#f88909;fill-opacity:1">
      <path
         inkscape:connector-curvature="0"
         d="m 423.257,51.829 c -0.808,-2.045 -2.67,-3.484 -4.853,-3.751 -2.177,-0.266 -4.335,0.682 -5.612,2.472 -7.581,10.629 -17.529,14.172 -29.053,18.275 -9.292,3.31 -18.901,6.73 -29.286,14.186 -14.687,10.544 -21.405,24.917 -18.055,38.54 l -0.358,0.459 C 329.907,113.113 323.234,104.884 316.192,97.536 283.245,63.158 237.208,42.49 189.881,40.833 c -2.085,-0.073 -4.204,-0.11 -6.298,-0.11 -52.846,0 -103.428,23.624 -138.775,64.813 -35.162,40.976 -50.747,94.317 -42.757,146.346 0.668,4.349 1.504,8.743 2.487,13.063 12.996,57.202 46.189,100.717 91.069,119.383 11.063,4.602 22.222,6.934 33.163,6.934 27.183,0 50.926,-14.539 65.143,-39.889 5.404,-9.646 8.891,-19.621 10.36,-29.651 0.866,-5.92 0.274,-11.835 -0.3,-17.567 -0.591,-5.9 -1.149,-11.476 -0.256,-17.09 2.047,-12.869 11.036,-20.553 24.047,-20.553 3.701,0 7.483,0.609 11.26,1.812 -4.422,8.11 -8.438,15.854 -11.947,23.032 -7.437,15.212 -12.567,27.81 -15.252,37.44 -1.655,5.939 -6.052,21.722 4.67,29.164 3.405,2.363 7.722,3.197 12.215,2.361 4.049,-0.752 16.369,-3.041 51.378,-42.896 9.396,-10.695 19.521,-23.072 30.104,-36.794 27.168,-9.15 48.31,-31.921 53.903,-58.087 1.4,-6.541 1.984,-13.541 1.735,-20.812 10.172,-15.72 19.094,-30.388 28.072,-46.156 0.172,-0.304 0.342,-0.628 0.51,-0.96 13.031,-3.569 24.254,-13.71 30.842,-27.891 9.618,-20.697 8.909,-47.297 -1.997,-74.896 z m -146.872,98.005 c -4.713,7.485 -12.814,11.954 -21.673,11.954 -4.81,0 -9.515,-1.361 -13.605,-3.937 -5.782,-3.642 -9.803,-9.317 -11.316,-15.98 -1.513,-6.663 -0.345,-13.518 3.298,-19.301 4.714,-7.485 12.816,-11.954 21.675,-11.954 4.811,0 9.515,1.361 13.604,3.938 5.782,3.64 9.802,9.315 11.316,15.979 1.513,6.664 0.342,13.518 -3.299,19.301 z m 33.207,46.353 c 12.934,-19.057 26.612,-38 39.604,-54.85 2.106,1.902 4.461,3.76 7.012,5.53 4.227,2.933 8.648,5.201 13.164,6.754 -10.969,18.758 -22.763,37.342 -37.043,58.375 -23.463,34.571 -47.859,66.684 -68.695,90.424 -11.638,13.26 -21.823,23.498 -29.671,29.839 3.029,-9.69 8.818,-22.989 16.875,-38.746 14.407,-28.177 35.273,-62.741 58.754,-97.326 z M 82.506,196.023 c -4.811,0 -9.516,-1.361 -13.607,-3.938 -5.782,-3.641 -9.801,-9.314 -11.315,-15.979 -1.514,-6.664 -0.342,-13.519 3.301,-19.302 4.711,-7.484 12.813,-11.953 21.671,-11.953 4.812,0 9.517,1.361 13.607,3.938 11.936,7.518 15.532,23.345 8.019,35.279 -4.716,7.486 -12.819,11.955 -21.676,11.955 z m -26.818,56.335 c 4.713,-7.486 12.814,-11.955 21.673,-11.955 4.81,0 9.514,1.362 13.606,3.938 5.782,3.641 9.801,9.315 11.315,15.979 1.515,6.662 0.343,13.516 -3.301,19.301 -4.711,7.483 -12.813,11.953 -21.671,11.953 -4.811,0 -9.517,-1.361 -13.609,-3.938 -5.782,-3.642 -9.8,-9.315 -11.313,-15.979 -1.512,-6.662 -0.339,-13.517 3.3,-19.299 z M 137.62,100.414 c 4.713,-7.485 12.815,-11.954 21.673,-11.954 4.809,0 9.514,1.361 13.604,3.937 11.937,7.516 15.533,23.344 8.019,35.28 -4.715,7.486 -12.817,11.955 -21.675,11.955 -4.81,0 -9.515,-1.361 -13.605,-3.938 -5.781,-3.64 -9.799,-9.314 -11.313,-15.979 -1.516,-6.663 -0.344,-13.517 3.297,-19.301 z"
         id="path5"
         style="fill:#f88909;fill-opacity:1" />
    </g>
    <g
       transform="matrix(0.39151368,0,0,0.39151368,21.150147,873.51243)"
       id="g7" />
    <g
       transform="matrix(0.39151368,0,0,0.39151368,21.150147,873.51243)"
       id="g9" />
    <g
       transform="matrix(0.39151368,0,0,0.39151368,21.150147,873.51243)"
       id="g11" />
    <g
       transform="matrix(0.39151368,0,0,0.39151368,21.150147,873.51243)"
       id="g13" />
    <g
       transform="matrix(0.39151368,0,0,0.39151368,21.150147,873.51243)"
       id="g15" />
    <g
       transform="matrix(0.39151368,0,0,0.39151368,21.150147,873.51243)"
       id="g17" />
    <g
       transform="matrix(0.39151368,0,0,0.39151368,21.150147,873.51243)"
       id="g19" />
    <g
       transform="matrix(0.39151368,0,0,0.39151368,21.150147,873.51243)"
       id="g21" />
    <g
       transform="matrix(0.39151368,0,0,0.39151368,21.150147,873.51243)"
       id="g23" />
    <g
       transform="matrix(0.39151368,0,0,0.39151368,21.150147,873.51243)"
       id="g25" />
    <g
       transform="matrix(0.39151368,0,0,0.39151368,21.150147,873.51243)"
       id="g27" />
    <g
       transform="matrix(0.39151368,0,0,0.39151368,21.150147,873.51243)"
       id="g29" />
    <g
       transform="matrix(0.39151368,0,0,0.39151368,21.150147,873.51243)"
       id="g31" />
    <g
       transform="matrix(0.39151368,0,0,0.39151368,21.150147,873.51243)"
       id="g33" />
    <g
       transform="matrix(0.39151368,0,0,0.39151368,21.150147,873.51243)"
       id="g35" />
    <path
       inkscape:connector-curvature="0"
       style="fill:none;fill-opacity:1;stroke:#f88909;stroke-width:6.71994591;stroke-miterlimit:4;stroke-dasharray:none;stroke-opacity:1"
       d="m 138.26665,984.29764 18.40509,48.28006 18.40509,0 18.40508,-48.28006 -18.40508,0 -9.20255,24.14006 -9.20254,-24.14006 -18.40509,0 z"
       id="rect4154" />
  </g>
</svg>
