<?xml version="1.0" encoding="UTF-8" standalone="no"?>
<!-- Created with Inkscape (http://www.inkscape.org/) -->

<svg
   xmlns:dc="http://purl.org/dc/elements/1.1/"
   xmlns:cc="http://creativecommons.org/ns#"
   xmlns:rdf="http://www.w3.org/1999/02/22-rdf-syntax-ns#"
   xmlns:svg="http://www.w3.org/2000/svg"
   xmlns="http://www.w3.org/2000/svg"
   xmlns:sodipodi="http://sodipodi.sourceforge.net/DTD/sodipodi-0.dtd"
   xmlns:inkscape="http://www.inkscape.org/namespaces/inkscape"
   width="200"
   height="200"
   viewBox="0 0 199.99999 199.99999"
   id="svg5663"
   version="1.1"
   inkscape:version="0.91 r13725"
   sodipodi:docname="logo-background-right.svg">
  <defs
     id="defs5665" />
  <sodipodi:namedview
     id="base"
     pagecolor="#ffffff"
     bordercolor="#666666"
     borderopacity="1.0"
     inkscape:pageopacity="0.0"
     inkscape:pageshadow="2"
     inkscape:zoom="1.979899"
     inkscape:cx="100.69215"
     inkscape:cy="122.70982"
     inkscape:document-units="px"
     inkscape:current-layer="layer1"
     showgrid="false"
     units="px"
     inkscape:window-width="949"
     inkscape:window-height="666"
     inkscape:window-x="417"
     inkscape:window-y="33"
     inkscape:window-maximized="0" />
  <metadata
     id="metadata5668">
    <rdf:RDF>
      <cc:Work
         rdf:about="">
        <dc:format>image/svg+xml</dc:format>
        <dc:type
           rdf:resource="http://purl.org/dc/dcmitype/StillImage" />
        <dc:title></dc:title>
      </cc:Work>
    </rdf:RDF>
  </metadata>
  <g
     inkscape:label="Layer 1"
     inkscape:groupmode="layer"
     id="layer1"
     transform="translate(0,-852.36225)">
    <path
       inkscape:connector-curvature="0"
       id="path922"
       style="fill:#2e2d2d;fill-opacity:1;fill-rule:nonzero;stroke:none"
       d="m 203.33173,940.80014 -41.20814,-41.22404 25.28278,-25.28809 -41.51838,-41.51975 0.62046,-0.62046 42.15073,42.15612 -25.28278,25.28809 39.95533,39.95521 17.48841,-17.49509 15.29302,15.30362 -0.62047,0.62153 -14.67255,-14.66725 -17.48841,17.48979" />
    <path
       inkscape:connector-curvature="0"
       id="path924"
       style="fill:#2e2d2d;fill-opacity:1;fill-rule:nonzero;stroke:none"
       d="m 124.66477,898.74742 -41.197529,-41.21344 25.288079,-25.28277 -41.550193,-41.52369 0.637438,-0.63213 42.150835,42.15603 -25.284164,25.28278 39.955334,39.97122 17.48841,-17.49509 15.29301,15.30351 -0.63107,0.63744 -14.68178,-14.67255 -17.46857,17.46859" />
    <path
       inkscape:connector-curvature="0"
       id="path926"
       style="fill:#2e2d2d;fill-opacity:1;fill-rule:nonzero;stroke:none"
       d="m 158.28538,896.76935 -2.71787,0 0.0111,-2.70853 2.68339,0.0111 0.0211,2.69793" />
    <path
       inkscape:connector-curvature="0"
       id="path928"
       style="fill:#2e2d2d;fill-opacity:1;fill-rule:nonzero;stroke:none"
       d="m 123.21436,900.00565 3.32996,0 0,-3.34555 -3.32996,0 0,3.34555 z" />
    <path
       inkscape:connector-curvature="0"
       id="path930"
       style="fill:#2e2d2d;fill-opacity:1;fill-rule:nonzero;stroke:none"
       d="m 143.19399,882.10751 -2.0868,0 -0.0111,-2.08148 2.10132,0 0,2.08148" />
    <path
       inkscape:connector-curvature="0"
       id="path932"
       style="fill:#2e2d2d;fill-opacity:1;fill-rule:nonzero;stroke:none"
       d="m 113.41679,954.3165 -0.62154,-0.62153 14.67648,-14.68178 -17.47792,-17.4778 41.20284,-41.19892 25.28278,25.27355 41.51838,-41.52368 0.62153,0.62048 -42.14012,42.15602 -25.28278,-25.28277 -39.95532,39.95532 17.47918,17.4778 -15.30351,15.30363" />
    <path
       inkscape:connector-curvature="0"
       id="path934"
       style="fill:#2e2d2d;fill-opacity:1;fill-rule:nonzero;stroke:none"
       d="m 111.96637,955.14517 2.71894,0 0,-2.70853 -2.71894,0 0,2.70853 z" />
    <path
       inkscape:connector-curvature="0"
       id="path936"
       style="fill:#2e2d2d;fill-opacity:1;fill-rule:nonzero;stroke:none"
       d="m 149.74603,882.39251 3.32476,0 0,-3.32477 -3.32476,0 0,3.32477 z" />
    <path
       inkscape:connector-curvature="0"
       id="path938"
       style="fill:#2e2d2d;fill-opacity:1;fill-rule:nonzero;stroke:none"
       d="m 108.7235,923.42437 3.34554,0 0,-3.34035 -3.34554,0 0,3.34035 z" />
    <path
       inkscape:connector-curvature="0"
       id="path940"
       style="fill:#2e2d2d;fill-opacity:1;fill-rule:nonzero;stroke:none"
       d="m 126.65876,940.05898 -0.0213,-2.07088 2.08807,0 0,2.08679 -2.06155,-0.0213" />
    <path
       inkscape:connector-curvature="0"
       id="path942"
       style="fill:#2e2d2d;fill-opacity:1;fill-rule:nonzero;stroke:none"
       d="m 36.00265,932.46222 -0.62152,-0.62153 14.672435,-14.66588 -17.49509,-17.47918 41.208139,-41.22935 25.298681,25.29868 41.514455,-41.50247 0.62153,0.61517 -42.136195,42.1309 -25.29868,-25.2987 -39.964557,39.98577 17.488415,17.47918 -15.287613,15.28762" />
    <path
       inkscape:connector-curvature="0"
       id="path944"
       style="fill:#2e2d2d;fill-opacity:1;fill-rule:nonzero;stroke:none"
       d="m 98.070745,886.31822 3.324855,0 0,-3.33007 -3.324855,0 0,3.33007 z" />
    <path
       inkscape:connector-curvature="0"
       id="path946"
       style="fill:#2e2d2d;fill-opacity:1;fill-rule:nonzero;stroke:none"
       d="m 34.536334,933.30149 2.708533,0 0,-2.70333 -2.708533,0 0,2.70333 z" />
    <path
       inkscape:connector-curvature="0"
       id="path948"
       style="fill:#2e2d2d;fill-opacity:1;fill-rule:nonzero;stroke:none"
       d="m 31.31605,901.55417 3.329955,0 0,-3.34034 -3.329955,0 0,3.34034 z" />
    <path
       inkscape:connector-curvature="0"
       id="path950"
       style="fill:#2e2d2d;fill-opacity:1;fill-rule:nonzero;stroke:none"
       d="m 49.208879,918.20469 0.02127,-2.08149 2.065575,0 0,2.08149 -2.081481,0" />
    <path
       inkscape:connector-curvature="0"
       id="path952"
       style="fill:#2e2d2d;fill-opacity:1;fill-rule:nonzero;stroke:none"
       d="m 139.12382,1009.1604 -0.62154,-0.6204 14.67245,-14.6832 -17.4792,-17.4778 41.20815,-41.22406 25.29868,25.29869 41.51446,-41.50915 0.62153,0.62153 -42.15613,42.15613 -25.28936,-25.28808 -39.95394,39.94462 17.47781,17.47791 -15.29291,15.30351" />
    <path
       inkscape:connector-curvature="0"
       id="path954"
       style="fill:#2e2d2d;fill-opacity:1;fill-rule:nonzero;stroke:none"
       d="m 137.66408,1009.9996 2.71892,0 0,-2.7189 -2.71892,0 0,2.7189 z" />
    <path
       inkscape:connector-curvature="0"
       id="path956"
       style="fill:#2e2d2d;fill-opacity:1;fill-rule:nonzero;stroke:none"
       d="m 134.45301,978.25366 0,-3.32507 3.33972,0 -0.0111,3.31446 -3.32507,0.0111" />
    <path
       inkscape:connector-curvature="0"
       id="path958"
       style="fill:#2e2d2d;fill-opacity:1;fill-rule:nonzero;stroke:none"
       d="m 152.34585,994.89357 2.0819,0 0,-2.08192 -2.0819,0 0,2.08192 z" />
    <path
       inkscape:connector-curvature="0"
       id="path960"
       style="fill:#2e2d2d;fill-opacity:1;fill-rule:nonzero;stroke:none"
       d="m 57.32928,1019.7932 -0.626831,-0.6374 14.697687,-14.6818 -17.488529,-17.47778 41.197538,-41.19891 25.282775,25.27354 41.52505,-41.52368 0.63108,0.62578 -42.15613,42.14012 -25.282775,-25.27217 -39.960521,39.95532 17.495106,17.47778 -15.314241,15.3195" />
    <path
       inkscape:connector-curvature="0"
       id="path962"
       style="fill:#2e2d2d;fill-opacity:1;fill-rule:nonzero;stroke:none"
       d="m 118.94268,973.14142 3.34034,0 0,-3.33007 -3.34034,0 0,3.33007 z" />
    <path
       inkscape:connector-curvature="0"
       id="path964"
       style="fill:#2e2d2d;fill-opacity:1;fill-rule:nonzero;stroke:none"
       d="m 55.889478,1020.6059 2.708533,0 0,-2.7086 -2.708533,0 0,2.7086 z" />
    <path
       inkscape:connector-curvature="0"
       id="path966"
       style="fill:#2e2d2d;fill-opacity:1;fill-rule:nonzero;stroke:none"
       d="m 93.653215,947.86925 3.34556,0 0,-3.34036 -3.34556,0 0,3.34036 z" />
    <path
       inkscape:connector-curvature="0"
       id="path968"
       style="fill:#2e2d2d;fill-opacity:1;fill-rule:nonzero;stroke:none"
       d="m 52.642667,988.87057 3.335155,0 0,-3.32487 -3.335155,0 0,3.32487 z" />
    <path
       inkscape:connector-curvature="0"
       id="path970"
       style="fill:#2e2d2d;fill-opacity:1;fill-rule:nonzero;stroke:none"
       d="m 70.55534,1005.5092 -0.0086,-2.0709 2.086792,0 -0.02126,2.0815 -2.061655,-0.011" />
    <path
       inkscape:connector-curvature="0"
       id="path1000"
       style="fill:#2e2d2d;fill-opacity:1;fill-rule:nonzero;stroke:none"
       d="m 70.337915,898.31787 -0.440161,0.44547 -10.460466,-10.46705 -12.480974,12.48097 -29.416583,-29.3994 18.058615,-18.04928 -29.6075053,-29.61279 0.440172,-0.43486 30.0635603,30.05826 -18.037398,18.03867 28.499139,28.49383 12.470366,-12.46633 10.911235,10.91251" />
    <path
       inkscape:connector-curvature="0"
       id="path1002"
       style="fill:#2e2d2d;fill-opacity:1;fill-rule:nonzero;stroke:none"
       d="m 70.934518,899.35866 -1.931614,0.0111 0.01106,-1.92643 1.917097,0 0,1.91582" />
    <path
       inkscape:connector-curvature="0"
       id="path1004"
       style="fill:#2e2d2d;fill-opacity:1;fill-rule:nonzero;stroke:none"
       d="m 45.91955,901.66288 2.382285,0 0,-2.38227 -2.382285,0 0,2.38227 z" />
    <path
       inkscape:connector-curvature="0"
       id="path1006"
       style="fill:#2e2d2d;fill-opacity:1;fill-rule:nonzero;stroke:none"
       d="m 60.171774,888.89683 -1.486156,0.0111 0.01106,-1.50208 1.475548,0.0111 0,1.48085" />
    <path
       inkscape:connector-curvature="0"
       id="path1008"
       style="fill:#2e2d2d;fill-opacity:1;fill-rule:nonzero;stroke:none"
       d="m 101.24605,987.92787 -0.42955,0.44017 -10.477745,-10.46175 -12.465058,12.46507 -29.405978,-29.39941 18.038668,-18.03336 -29.607497,-29.6128 0.424254,-0.44016 30.079482,30.06356 -18.03868,18.02276 28.493832,28.50975 12.470367,-12.48096 10.917905,10.92713" />
    <path
       inkscape:connector-curvature="0"
       id="path1010"
       style="fill:#2e2d2d;fill-opacity:1;fill-rule:nonzero;stroke:none"
       d="m 35.924484,914.28439 2.366699,0 0,-2.38228 -2.366699,0 0,2.38228 z" />
    <path
       inkscape:connector-curvature="0"
       id="path1012"
       style="fill:#2e2d2d;fill-opacity:1;fill-rule:nonzero;stroke:none"
       d="m 65.615458,943.98469 2.382285,0 0,-2.38228 -2.382285,0 0,2.38228 z" />
    <path
       inkscape:connector-curvature="0"
       id="path1014"
       style="fill:#2e2d2d;fill-opacity:1;fill-rule:nonzero;stroke:none"
       d="m 101.83597,988.96337 -1.926315,0 0,-1.93172 1.926315,-0.0111 0,1.94234" />
    <path
       inkscape:connector-curvature="0"
       id="path1016"
       style="fill:#2e2d2d;fill-opacity:1;fill-rule:nonzero;stroke:none"
       d="m 47.576789,962.00745 2.382273,0 0,-2.38228 -2.382273,0 0,2.38228 z" />
    <path
       inkscape:connector-curvature="0"
       id="path1018"
       style="fill:#2e2d2d;fill-opacity:1;fill-rule:nonzero;stroke:none"
       d="m 76.838309,991.26759 2.371883,0 0,-2.38229 -2.371883,0 0,2.38229 z" />
    <path
       inkscape:connector-curvature="0"
       id="path1020"
       style="fill:#2e2d2d;fill-opacity:1;fill-rule:nonzero;stroke:none"
       d="m 91.079925,978.50152 -1.48627,0 0,-1.50078 1.48627,0.0211 0,1.47566" />
    <path
       inkscape:connector-curvature="0"
       id="path1050"
       style="fill:#2e2d2d;fill-opacity:1;fill-rule:nonzero;stroke:none"
       d="m 94.850455,946.67731 -5.14278,-5.15201 19.512945,-19.52482 0.31182,0.31181 -19.204085,19.21333 4.82724,4.84178 -0.30546,0.3097" />
    <path
       inkscape:connector-curvature="0"
       id="path1052"
       style="fill:#2e2d2d;fill-opacity:1;fill-rule:nonzero;stroke:none"
       d="m 131.43287,943.44112 -4.09139,-4.07547 0.47199,-0.45608 3.59956,3.59946 21.96831,-21.95896 9.08961,9.06308 -0.4826,0.49213 -8.60701,-8.61231 -21.94847,21.94836" />
    <path
       inkscape:connector-curvature="0"
       id="path1054"
       style="fill:#2e2d2d;fill-opacity:1;fill-rule:nonzero;stroke:none"
       d="m 59.669354,888.37447 -0.465618,-0.46138 14.646035,-14.64593 18.669744,18.66974 7.25068,-7.2494 0.460315,0.46561 -7.726695,7.71609 -18.669742,-18.65914 -14.164719,14.16471" />
    <path
       inkscape:connector-curvature="0"
       id="path1058"
       style="fill:#2e2d2d;fill-opacity:1;fill-rule:nonzero;stroke:none"
       d="m 100.86815,988.31638 -0.46667,-0.46667 4.66146,-4.66148 1.68248,1.68376 13.63176,-13.61988 0.46562,0.46562 -14.07055,14.08655 -1.69435,-1.70888 -4.20943,4.2213" />
    <path
       inkscape:connector-curvature="0"
       id="path1060"
       style="fill:#2e2d2d;fill-opacity:1;fill-rule:nonzero;stroke:none"
       d="m 17.798311,890.78209 -10.0720643,-10.07196 9.5801413,-9.56561 0.482593,0.47623 -9.1306513,9.11473 9.1306513,9.11484 2.599919,-2.59992 12.179962,12.19598 -0.450768,0.45077 -11.719962,-11.71466 -2.599821,2.59982" />
    <path
       inkscape:connector-curvature="0"
       id="path1062"
       style="fill:#f88909;fill-opacity:1;fill-rule:nonzero;stroke:none"
       d="m 58.391293,1012.3197 6.188777,-6.1887 6.188774,6.1887 -6.188774,6.1888 -6.188777,-6.1888" />
    <path
       inkscape:connector-curvature="0"
       id="path1064"
       style="fill:#f88909;fill-opacity:1;fill-rule:nonzero;stroke:none"
       d="m 116.006,910.37459 6.18877,-6.18879 6.18879,6.18879 -6.18879,6.18877 -6.18877,-6.18877" />
    <path
       inkscape:connector-curvature="0"
       id="path1066"
       style="fill:#f88909;fill-opacity:1;fill-rule:nonzero;stroke:none"
       d="m 73.368665,960.23089 6.187505,-6.18348 6.188774,6.18348 -6.188774,6.18879 -6.187505,-6.18879" />
    <path
       inkscape:connector-curvature="0"
       id="path1068"
       style="fill:#168ed8;fill-opacity:1;fill-rule:nonzero;stroke:none"
       d="m 38.35863,922.95896 6.188786,-6.18877 6.188774,6.18877 -6.188774,6.18878 -6.188786,-6.18878" />
    <path
       inkscape:connector-curvature="0"
       id="path1070"
       style="fill:#168ed8;fill-opacity:1;fill-rule:nonzero;stroke:none"
       d="m 146.3639,960.66045 6.18877,-6.18878 6.18877,6.18878 -6.18877,6.18878 -6.18877,-6.18878" />
    <path
       inkscape:connector-curvature="0"
       id="path1072"
       style="fill:#168ed8;fill-opacity:1;fill-rule:nonzero;stroke:none"
       d="m 50.668521,875.89349 6.188774,-6.18877 6.18879,6.18877 -6.18879,6.18878 -6.188774,-6.18878" />
    <path
       inkscape:connector-curvature="0"
       id="path1074"
       style="fill:#2e2d2d;fill-opacity:1;fill-rule:nonzero;stroke:none"
       d="m 155.73721,996.50837 c 1.45042,-1.4345 1.45042,-3.79037 0,-5.23017 -1.4398,-1.43451 -3.77977,-1.43451 -5.23018,0.0111 -1.4398,1.4239 -1.4398,3.77977 0,5.21427 1.45041,1.4398 3.79038,1.4398 5.23018,0 z m -5.63459,-5.62929 c 1.67314,-1.65724 4.37648,-1.65724 6.0337,0 1.67315,1.65724 1.67315,4.37648 0,6.03372 -1.66783,1.66784 -4.36056,1.65723 -6.0337,0 -1.65724,-1.65724 -1.66647,-4.36588 0,-6.03372" />
    <path
       inkscape:connector-curvature="0"
       id="path1078"
       style="fill:#2e2d2d;fill-opacity:1;fill-rule:nonzero;stroke:none"
       d="m 80.30784,992.66624 c 1.439802,-1.43449 1.439802,-3.78114 0,-5.23018 -1.434504,-1.4398 -3.781152,-1.4398 -5.230185,0.01 -1.434492,1.4398 -1.434492,3.78645 0,5.22094 1.449033,1.45042 3.795681,1.45042 5.230185,0 z m -5.62929,-5.61869 c 1.657228,-1.67314 4.360559,-1.68375 6.033705,0 1.666459,1.65724 1.65724,4.36588 0,6.03233 -1.673146,1.65724 -4.365869,1.65724 -6.033705,0 -1.673146,-1.68236 -1.673146,-4.37509 0,-6.03233" />
    <path
       inkscape:connector-curvature="0"
       id="path1080"
       style="fill:#2e2d2d;fill-opacity:1;fill-rule:nonzero;stroke:none"
       d="m 92.908125,980.66129 c 1.4345,-1.44511 1.4345,-3.79048 0,-5.23028 -1.4398,-1.43451 -3.78645,-1.43451 -5.23155,0 -1.43843,1.4398 -1.43843,3.78517 0,5.21967 1.4451,1.45041 3.79175,1.45041 5.23155,0.0111 z m -5.634592,-5.6293 c 1.657232,-1.65723 4.365872,-1.67315 6.033702,0 1.66646,1.65724 1.65724,4.37638 0,6.03361 -1.66783,1.65724 -4.36057,1.65724 -6.033702,0 -1.673146,-1.66784 -1.673146,-4.37637 0,-6.03361" />
    <path
       inkscape:connector-curvature="0"
       id="path1096"
       style="fill:#2e2d2d;fill-opacity:1;fill-rule:nonzero;stroke:none"
       d="m 141.47047,1011.165 c 1.44903,-1.4504 1.44903,-3.7905 0.0111,-5.2303 -1.4451,-1.4345 -3.79175,-1.4345 -5.23155,0 -1.43451,1.4398 -1.43451,3.7799 0,5.2303 1.4398,1.4398 3.78645,1.4398 5.22095,0 z m -5.62008,-5.6293 c 1.65724,-1.6731 4.37648,-1.6731 6.03372,0 1.67314,1.6732 1.65723,4.3764 0,6.0336 -1.67314,1.6719 -4.36588,1.6719 -6.03372,0 -1.65724,-1.6572 -1.66646,-4.3604 0,-6.0336" />
    <path
       inkscape:connector-curvature="0"
       id="path1098"
       style="fill:#2e2d2d;fill-opacity:1;fill-rule:nonzero;stroke:none"
       d="m 56.842028,989.86512 c 1.45041,-1.43451 1.45041,-3.79048 0.02126,-5.21438 -1.450422,-1.45041 -3.79706,-1.45041 -5.246204,0 -1.434505,1.4239 -1.434505,3.77987 0.0098,5.21438 1.439803,1.4398 3.78644,1.4398 5.220945,0 z m -5.629293,-5.62929 c 1.667836,-1.65724 4.376369,-1.65724 6.042939,0 1.657227,1.67314 1.657227,4.37637 -0.0098,6.03361 -1.673146,1.66783 -4.365773,1.66783 -6.023013,0 -1.667835,-1.65724 -1.683741,-4.36047 -0.01106,-6.03361" />
    <path
       inkscape:connector-curvature="0"
       id="path1100"
       style="fill:#2e2d2d;fill-opacity:1;fill-rule:nonzero;stroke:none"
       d="m 97.527165,949.0598 c 1.45042,-1.44913 1.45042,-3.79047 0.0213,-5.23028 -1.45571,-1.45042 -3.79568,-1.45042 -5.23018,0 -1.4398,1.43981 -1.4398,3.78115 0,5.23028 1.4345,1.43451 3.77447,1.43451 5.21427,0 z m -5.61868,-5.62929 c 1.65724,-1.67315 4.37648,-1.67315 6.03372,0 1.66645,1.66785 1.65722,4.36046 -0.0111,6.02831 -1.65724,1.67313 -4.34996,1.67313 -6.02311,0 -1.65724,-1.66785 -1.67314,-4.36046 0,-6.02831" />
    <path
       inkscape:connector-curvature="0"
       id="path1102"
       style="fill:#2e2d2d;fill-opacity:1;fill-rule:nonzero;stroke:none"
       d="m 130.93045,941.73213 c 1.45041,-1.45043 1.45041,-3.78116 0.0111,-5.23019 -1.44914,-1.43451 -3.79048,-1.43451 -5.24089,0 -1.43981,1.44903 -1.43981,3.77976 0.0213,5.23019 1.43449,1.45041 3.77585,1.45041 5.21437,0 z m -5.6346,-5.6187 c 1.67314,-1.68375 4.37638,-1.68375 6.04951,0 1.65724,1.65724 1.65724,4.34997 -0.0211,6.03234 -1.66785,1.65723 -4.36047,1.65723 -6.0177,0 -1.67315,-1.68237 -1.68248,-4.3751 -0.0213,-6.03234" />
    <path
       inkscape:connector-curvature="0"
       id="path1104"
       style="fill:#2e2d2d;fill-opacity:1;fill-rule:nonzero;stroke:none"
       d="m 164.75926,932.51397 c 1.4557,-1.45041 1.4557,-3.80639 0.0211,-5.23029 -1.45041,-1.45041 -3.79578,-1.45041 -5.23029,0 -1.43577,1.4239 -1.43577,3.77988 0,5.23029 1.43451,1.42389 3.77988,1.42389 5.21438,0 z m -5.61339,-5.6452 c 1.65723,-1.65724 4.37637,-1.65724 6.03361,0 1.66657,1.68375 1.65723,4.37637 -0.0213,6.03361 -1.65724,1.68247 -4.34985,1.68247 -6.0177,0 -1.65723,-1.65724 -1.67315,-4.34986 0,-6.03361" />
    <path
       inkscape:connector-curvature="0"
       id="path1106"
       style="fill:#2e2d2d;fill-opacity:1;fill-rule:nonzero;stroke:none"
       d="m 102.07463,887.39073 c 1.45041,-1.45042 1.45041,-3.79176 0.0111,-5.23156 -1.45041,-1.44904 -3.797045,-1.44904 -5.240785,0 -1.4398,1.4398 -1.4398,3.78114 0.01,5.23156 1.4345,1.4398 3.781135,1.4398 5.220945,0 z m -5.634605,-5.6293 c 1.67315,-1.67315 4.376475,-1.67315 6.042935,0 1.67315,1.66657 1.65724,4.36057 -0.01,6.03234 -1.65723,1.66783 -4.351225,1.66783 -6.017795,0 -1.67315,-1.67177 -1.67315,-4.36577 -0.0111,-6.03234" />
  </g>
</svg>
