<?xml version="1.0" encoding="UTF-8" standalone="no"?>
<!-- Created with Inkscape (http://www.inkscape.org/) -->

<svg
   xmlns:dc="http://purl.org/dc/elements/1.1/"
   xmlns:cc="http://creativecommons.org/ns#"
   xmlns:rdf="http://www.w3.org/1999/02/22-rdf-syntax-ns#"
   xmlns:svg="http://www.w3.org/2000/svg"
   xmlns="http://www.w3.org/2000/svg"
   xmlns:sodipodi="http://sodipodi.sourceforge.net/DTD/sodipodi-0.dtd"
   xmlns:inkscape="http://www.inkscape.org/namespaces/inkscape"
   width="200"
   height="200"
   viewBox="0 0 200 200"
   id="svg4184"
   version="1.1"
   inkscape:version="0.91 r13725"
   sodipodi:docname="documentation-icon.svg">
  <defs
     id="defs4186" />
  <sodipodi:namedview
     id="base"
     pagecolor="#ffffff"
     bordercolor="#666666"
     borderopacity="1.0"
     inkscape:pageopacity="0.0"
     inkscape:pageshadow="2"
     inkscape:zoom="4.365"
     inkscape:cx="100"
     inkscape:cy="136.60749"
     inkscape:document-units="px"
     inkscape:current-layer="layer1"
     showgrid="false"
     units="px"
     inkscape:window-width="1366"
     inkscape:window-height="714"
     inkscape:window-x="0"
     inkscape:window-y="0"
     inkscape:window-maximized="1" />
  <metadata
     id="metadata4189">
    <rdf:RDF>
      <cc:Work
         rdf:about="">
        <dc:format>image/svg+xml</dc:format>
        <dc:type
           rdf:resource="http://purl.org/dc/dcmitype/StillImage" />
        <dc:title />
      </cc:Work>
    </rdf:RDF>
  </metadata>
  <g
     inkscape:label="Layer 1"
     inkscape:groupmode="layer"
     id="layer1"
     transform="translate(0,-852.36216)">
    <g
       id="g3"
       transform="matrix(1.7386985,0,0,1.8204988,23.594635,872.36216)"
       style="fill:#168ed8;fill-opacity:1">
      <g
         id="Document_2_"
         style="fill:#168ed8;fill-opacity:1">
        <g
           id="g6"
           style="fill:#168ed8;fill-opacity:1">
          <path
             d="m 51.4,18.44 -33.032,0 0,7.286 33.032,0 0,-7.286 z m -33.032,21.858 51.383,0 0,-7.286 -51.383,0 0,7.286 z m 0,14.579 51.383,0 0,-7.286 -51.383,0 0,7.286 z m 0,14.571 51.383,0 0,-7.286 -51.383,0 0,7.286 z M 83.128,10.933 73.19,1.067 C 72.499,0.379 71.566,0 70.595,0 L 11.027,0 C 6.977,0 3.684,3.268 3.684,7.286 l 0,73.315 c 0,4.02 3.293,7.287 7.343,7.287 l 65.833,0 c 4.051,0 7.344,-3.269 7.344,-7.287 l 0,-67.094 c 0,-0.966 -0.386,-1.895 -1.076,-2.574 z m -72.101,69.671 0,-73.318 47.373,0 0,14.801 c 0,2.009 1.646,3.64 3.671,3.64 l 14.791,0 0.006,54.876 -65.841,0 z"
             id="path8"
             inkscape:connector-curvature="0"
             style="fill:#168ed8;fill-opacity:1" />
        </g>
      </g>
    </g>
  </g>
</svg>
