<?xml version="1.0" encoding="UTF-8" standalone="no"?>
<!-- Created with Inkscape (http://www.inkscape.org/) -->

<svg
   xmlns:dc="http://purl.org/dc/elements/1.1/"
   xmlns:cc="http://creativecommons.org/ns#"
   xmlns:rdf="http://www.w3.org/1999/02/22-rdf-syntax-ns#"
   xmlns:svg="http://www.w3.org/2000/svg"
   xmlns="http://www.w3.org/2000/svg"
   xmlns:sodipodi="http://sodipodi.sourceforge.net/DTD/sodipodi-0.dtd"
   xmlns:inkscape="http://www.inkscape.org/namespaces/inkscape"
   version="1.1"
   width="200"
   height="200"
   id="svg2991"
   inkscape:version="0.91 r13725"
   sodipodi:docname="libgdx-logo.svg">
  <sodipodi:namedview
     pagecolor="#ffffff"
     bordercolor="#666666"
     borderopacity="1"
     objecttolerance="10"
     gridtolerance="10"
     guidetolerance="10"
     inkscape:pageopacity="0"
     inkscape:pageshadow="2"
     inkscape:window-width="1366"
     inkscape:window-height="714"
     id="namedview12"
     showgrid="false"
     inkscape:zoom="1.7733333"
     inkscape:cx="-19.163933"
     inkscape:cy="55.509719"
     inkscape:window-x="0"
     inkscape:window-y="0"
     inkscape:window-maximized="1"
     inkscape:current-layer="svg2991" />
  <defs
     id="defs2993" />
  <metadata
     id="metadata2996">
    <rdf:RDF>
      <cc:Work
         rdf:about="">
        <dc:format>image/svg+xml</dc:format>
        <dc:type
           rdf:resource="http://purl.org/dc/dcmitype/StillImage" />
        <dc:title />
      </cc:Work>
    </rdf:RDF>
  </metadata>
  <path
     d="m 19.153121,125.93585 c -6.911064,0 -12.5274226,6.99792 -12.5274226,15.62867 0,0.10771 -8.935e-4,0.20982 0,0.31509 1.874e-4,0.0211 -4.462e-4,0.0414 0,0.0625 l 0,18.40151 c -0.0027,0.12846 0,0.24885 0,0.37812 0,8.63066 5.6163586,15.62867 12.5274226,15.62867 l 8.8446,0 1.032332,0 11.467286,0 1.032333,0 8.844598,0 c 6.911168,0 12.527527,-6.99801 12.527527,-15.62867 0,-8.63077 -5.616359,-15.62869 -12.527527,-15.62869 l -5.022166,0 -2.00887,0 -9.932736,0 0,11.09132 9.932736,0 2.00887,0 1.478746,0 c 1.961285,0 3.54342,1.81617 3.54342,4.03321 0,2.21706 -1.582135,4.00165 -3.54342,4.00165 l -3.487616,0 -1.813562,0 -1.032333,0 -11.467286,0 -1.032332,0 -1.813562,0 -3.487625,0 c -1.924053,0 -3.484928,-1.71724 -3.543413,-3.87561 l 0,-18.40151 0,-0.0625 c 0.08718,-2.12842 1.638325,-3.81269 3.543413,-3.81269 l 3.487625,0 1.813562,0 5.412777,0 0,0.0313 27.677737,0 0,-12.16263 -20.590896,0 -7.086841,0 -5.412777,0 -8.8446,0 z"
     id="rect3030-3"
     style="display:inline;fill:#168ed8;fill-opacity:1;stroke:#168ed8;stroke-width:0.93048972;stroke-miterlimit:4;stroke-dasharray:none;stroke-opacity:1"
     inkscape:connector-curvature="0" />
  <path
     d="m 69.154839,125.93575 0,12.15506 22.637947,0 7.786111,0 4.627343,0 1.80106,0 3.46357,0 c 1.89196,0 3.43246,1.68317 3.519,3.81027 l 0,0.0625 0,18.39003 c -0.058,2.15707 -1.6082,3.87319 -3.519,3.87319 l -3.46357,0 -1.80106,0 -7.952375,0 -4.461079,0 -10.224486,0 0,-34.79738 -12.413461,-0.75983 0,35.55721 0,8.28189 0,3.84173 22.637947,0 4.461079,0 7.952375,0 8.78363,0 c 6.86354,0 12.44118,-6.99358 12.44118,-15.6189 0,-0.12915 0.003,-0.24944 0,-0.37791 l 0,-18.39003 c 4.3e-4,-0.0211 -1.9e-4,-0.0423 0,-0.0625 8.8e-4,-0.10509 0,-0.2072 0,-0.31489 0,-8.6253 -5.57764,-15.61889 -12.44118,-15.61889 l -8.78363,0 -4.627343,0 0,-0.0312 -30.424058,0 z"
     id="rect3030-3-4-2"
     style="display:inline;fill:#168ed8;fill-opacity:1;stroke:#168ed8;stroke-width:0.93048972;stroke-miterlimit:4;stroke-dasharray:none;stroke-opacity:1"
     inkscape:connector-curvature="0"
     sodipodi:nodetypes="ccccccscccscccccccccccccsscccssccccc" />
  <path
     d="m 125.42873,125.93585 17.36685,0 17.02838,19.22074 17.02838,-19.22074 17.36335,0 -22.33229,25.20755 22.33229,25.20754 -17.36335,0 -17.02838,-19.22075 -17.02838,19.22075 -17.36335,0 22.3288,-25.20754 z"
     id="path4169"
     style="display:inline;fill:#168ed8;fill-opacity:1;stroke:#168ed8;stroke-width:0.93048972;stroke-miterlimit:4;stroke-dasharray:none;stroke-opacity:1"
     inkscape:connector-curvature="0" />
  <rect
     width="17.279421"
     height="75.79628"
     x="50.33403"
     y="33.608864"
     id="rect3018"
     style="display:inline;fill:#168ed8;fill-opacity:1;stroke:#168ed8;stroke-width:0.76761198;stroke-miterlimit:4;stroke-dasharray:none;stroke-opacity:1" />
  <rect
     width="17.279434"
     height="46.993698"
     x="78.721527"
     y="62.411427"
     id="rect3026"
     style="display:inline;fill:#168ed8;fill-opacity:1;stroke:#168ed8;stroke-width:0.76761198;stroke-miterlimit:4;stroke-dasharray:none;stroke-opacity:1" />
  <rect
     width="17.279434"
     height="18.191109"
     x="78.721527"
     y="33.608864"
     id="rect3028"
     style="display:inline;fill:#168ed8;fill-opacity:1;stroke:#168ed8;stroke-width:0.76761198;stroke-miterlimit:4;stroke-dasharray:none;stroke-opacity:1" />
  <path
     inkscape:connector-curvature="0"
     d="m 107.10894,33.608894 0,28.802576 0,16.675182 0,12.079959 0,18.238559 17.3078,0 12.24682,0 c 9.56966,0 17.34644,-10.521135 17.34644,-23.496851 0,-12.975871 -7.77678,-23.496849 -17.34644,-23.496849 l -12.24682,0 0,-28.802576 -17.3078,0 z m 17.3078,45.477758 7.34037,0 c 2.71572,0 4.90645,2.730487 4.90645,6.063703 0,3.333219 -2.19073,6.016256 -4.90645,6.016256 l -7.34037,0 0,-12.079959 z"
     id="rect3030"
     style="display:inline;fill:#168ed8;fill-opacity:1;stroke:#168ed8;stroke-width:0.76761198;stroke-miterlimit:4;stroke-dasharray:none;stroke-opacity:1" />
</svg>
