<?xml version="1.0" encoding="UTF-8" standalone="no"?>
<!-- Created with Inkscape (http://www.inkscape.org/) -->

<svg
   xmlns:dc="http://purl.org/dc/elements/1.1/"
   xmlns:cc="http://creativecommons.org/ns#"
   xmlns:rdf="http://www.w3.org/1999/02/22-rdf-syntax-ns#"
   xmlns:svg="http://www.w3.org/2000/svg"
   xmlns="http://www.w3.org/2000/svg"
   xmlns:sodipodi="http://sodipodi.sourceforge.net/DTD/sodipodi-0.dtd"
   xmlns:inkscape="http://www.inkscape.org/namespaces/inkscape"
   width="200"
   height="200"
   viewBox="0 0 200 200"
   id="svg4371"
   version="1.1"
   inkscape:version="0.91 r13725"
   sodipodi:docname="shield-icon.svg">
  <defs
     id="defs4373" />
  <sodipodi:namedview
     id="base"
     pagecolor="#ffffff"
     bordercolor="#666666"
     borderopacity="1.0"
     inkscape:pageopacity="0.0"
     inkscape:pageshadow="2"
     inkscape:zoom="1.979899"
     inkscape:cx="5.370887"
     inkscape:cy="101.84699"
     inkscape:document-units="px"
     inkscape:current-layer="layer1"
     showgrid="false"
     inkscape:window-width="1366"
     inkscape:window-height="714"
     inkscape:window-x="0"
     inkscape:window-y="0"
     inkscape:window-maximized="1"
     units="px" />
  <metadata
     id="metadata4376">
    <rdf:RDF>
      <cc:Work
         rdf:about="">
        <dc:format>image/svg+xml</dc:format>
        <dc:type
           rdf:resource="http://purl.org/dc/dcmitype/StillImage" />
        <dc:title />
      </cc:Work>
    </rdf:RDF>
  </metadata>
  <g
     inkscape:label="Layer 1"
     inkscape:groupmode="layer"
     id="layer1"
     transform="translate(0,-852.36216)">
    <path
       style="fill:#168ed8;fill-opacity:1;fill-rule:nonzero;stroke:none"
       d="m 100,857.3622 c 0,0 -40.963275,24.19852 -85,30.4698 0,0 16.573694,96.34588 23.202759,105.75367 6.632746,9.41293 51.851807,53.77653 61.797241,53.77653 9.94544,0 55.1684,-44.3636 61.79931,-53.77653 C 168.42653,984.17788 185,887.832 185,887.832 140.96329,881.56072 100,857.3622 100,857.3622 Z m -1.515229,11.2298 c 0,0 34.832719,22.7428 73.364849,28.5056 0,0 -15.00791,82.47249 -20.80671,91.11748 -5.80206,8.64974 -43.85588,45.37512 -52.558139,45.37512 -16.236835,-58.47319 -18.072304,-107.083 0,-164.9982 z"
       id="path34"
       inkscape:connector-curvature="0"
       sodipodi:nodetypes="ccsssccccscc" />
  </g>
</svg>
